<svg width="85" height="80" fill="none" xmlns="http://www.w3.org/2000/svg"><g clip-path="url(#clip0_810_2417)"><path d="M68.844 74.3c-2.09-6.327-4.434-12.618-6.524-18.945-.39-1.192-2.421-1.342-2.652-.112-.659 2.297-1.176 4.526-1.834 6.823-1.317-2.215-1.196-4.342-.847-6.835.061-1.063-.075-2.29-1.229-2.946-1.773-1.049-4.402.035-6.125.513-4.38 1.23-8.534 2.956-13.137 3.69-5.336.739-4.59-2.29-2.63-5.293 2.016-3.204 4.822-6.182 7.74-8.695 5.153-4.358 10.928-8.754 13.746-14.753 1.566-3.334 1.054-9.208-3.964-10.43-6.145-1.546-14.28.444-19.37 3.306-2.828 1.35-19.975 12.643-18.753 3.7.902-6.549 8.97-12.556 13.953-16.747.651-.57-.276-1.592-1.011-1.154-5.771 3.532-11.013 8.62-14.337 14.26-1.734 3.068-2.24 9.515 3.543 9.768 6.742.313 12.718-4.782 17.979-7.812 3.253-1.985 7.771-2.85 11.611-3.478 8.19-1.326 10.027 4.604 6.563 9.878-4.288 6.443-11.698 10.586-16.886 16.338-1.815 2.074-8.164 8.898-4.34 12.156 4.415 3.751 12.811 0 17.135-1.463-.255.036 6.952-2.545 7.032-1.549.08.996-.234 2.094-.295 3.157-.093 2.027.38 3.783 1.501 5.402a36.045 36.045 0 00-6.511-1.544c-1.185-.123-1.727 1.342-.969 2.1 5.51 5.038 12.496 7.906 18.772 11.975.9.69 2.258-.217 1.84-1.31zM58.13 65.716c.676.194 1.045-.24 1.047-.672.395-.103.707-.338.821-.737l1.145-3.994c1.339 3.842 2.706 7.584 4.045 11.426-3.97-2.327-8.137-4.387-11.766-7.048 1.494.32 3.101.673 4.708 1.025z" fill="#FBC009"/></g><defs><clipPath id="clip0_810_2417"><path fill="#fff" transform="rotate(16 7.554 62.32)" d="M0 0h70v62H0z"/></clipPath></defs></svg>