<svg width="53" height="53" fill="none" xmlns="http://www.w3.org/2000/svg"><g clip-path="url(#clip0_810_2414)"><path d="M11.666 52.048c3.516-3.07 6.932-6.275 10.448-9.345.664-.576.145-1.786-.733-1.555-1.708.301-3.328.664-5.036.965 1.053-1.41 2.486-1.97 4.228-2.507.716-.279 1.48-.72 1.56-1.576.148-1.328-1.363-2.516-2.201-3.363-2.14-2.15-4.538-4.023-6.42-6.447-2.109-2.844.106-3.31 2.674-3.075 2.716.21 5.524.94 8.062 1.87 4.428 1.67 9.07 3.684 13.866 3.527 2.664-.087 6.364-2.117 5.64-5.358-.856-3.983-4.638-8.063-8.066-10.138-1.747-1.223-14.377-7.724-8.135-9.666 4.573-1.42 10.97 1.434 15.237 3.055.572.205.961-.63.45-.922-4.074-2.267-9.01-3.77-13.722-4.011-2.541-.088-6.927 1.528-5.333 4.921 1.847 3.962 7.009 5.884 10.599 8.007 2.293 1.28 4.236 3.617 5.816 5.635 3.363 4.307.03 7.115-4.486 6.686-5.533-.555-10.507-3.583-15.862-4.859-1.913-.428-8.324-2.053-9.298 1.104-1.119 3.642 3.899 7.351 6.174 9.4-.1-.136 3.786 3.236 3.157 3.577-.629.34-1.446.485-2.162.764-1.358.546-2.367 1.336-3.088 2.459a20.553 20.553 0 00-.969-4.193c-.28-.717-1.406-.594-1.673.065-1.63 4.651-1.386 9.508-2.146 14.312-.18.72.83 1.232 1.42.668zm2.373-8.686c.078.445.476.528.76.402a.792.792 0 00.733.253l2.97-.524c-2.114 1.904-4.154 3.795-6.268 5.699.32-2.965.403-5.966 1.045-8.835.245.952.502 1.978.76 3.005z" fill="#FBC009"/></g><defs><clipPath id="clip0_810_2414"><path fill="#fff" transform="rotate(80 21.873 26.913)" d="M0 0h45v45H0z"/></clipPath></defs></svg>