<svg width="118" height="134" fill="none" xmlns="http://www.w3.org/2000/svg"><path d="M52.854 2.744a9 9 0 0112.291 0l18.579 17.364a8.998 8.998 0 003.524 2.034l24.327 7.408a9 9 0 016.145 10.644l-5.748 24.772a8.989 8.989 0 000 4.068l5.748 24.772a9 9 0 01-6.145 10.644l-24.327 7.408a8.998 8.998 0 00-3.524 2.034l-18.579 17.364a9 9 0 01-12.29 0l-18.58-17.364a9 9 0 00-3.523-2.034L6.425 104.45A9 9 0 01.279 93.806l5.749-24.772a9 9 0 000-4.068L.279 40.194A9 9 0 016.425 29.55l24.327-7.408a9 9 0 003.524-2.034L52.854 2.744z" fill="#FBC009"/></svg>