<svg width="110" height="32" viewBox="0 0 110 32" fill="none" xmlns="http://www.w3.org/2000/svg">
<path d="M34.24 16.08L34.04 18.48C33.4267 18.4267 32.76 18.4 32.04 18.4C31.3467 18.4 30.76 18.4133 30.28 18.44C29.9067 21.3733 29.6667 24.56 29.56 28H26.76C26.6 27.3067 26.52 26.3867 26.52 25.24C26.52 24.0933 26.5467 23.1067 26.6 22.28C26.68 21.4267 26.7733 20.5867 26.88 19.76C26.9867 18.9333 27.04 18.4533 27.04 18.32C26.6667 18.2933 25.7867 18.28 24.4 18.28C23.0133 18.28 22.0533 18.3067 21.52 18.36C18.4267 22.52 15.5733 25.68 12.96 27.84C10.3467 29.9733 7.73333 31.04 5.12 31.04C3.84 31.04 2.76 30.6533 1.88 29.88C1.02667 29.1067 0.6 28.08 0.6 26.8C0.6 24.3733 2.44 22.16 6.12 20.16C9.82667 18.16 14.6133 16.8133 20.48 16.12C21.1733 15.0533 22.4667 13.4133 24.36 11.2C26.2533 8.96 28.12 7.01333 29.96 5.36C30.76 3.49333 31.3867 2.2 31.84 1.48C32.32 0.733332 32.7867 0.359998 33.24 0.359998C33.6933 0.359998 34.0667 0.533332 34.36 0.879999C34.6533 1.22667 34.8 1.68 34.8 2.24C34.8 2.77333 34.4933 3.57333 33.88 4.64C33.2933 5.68 32.68 7.30667 32.04 9.52C31.4 11.7067 30.96 13.7733 30.72 15.72C32.1067 15.72 33.28 15.84 34.24 16.08ZM13.84 24.44C16.0533 22.3333 17.72 20.3333 18.84 18.44C14.36 18.7067 10.8933 19.5467 8.44 20.96C6.01333 22.3733 4.8 23.88 4.8 25.48C4.8 26.1733 5.02667 26.72 5.48 27.12C5.96 27.52 6.58667 27.72 7.36 27.72C9.44 27.72 11.6 26.6267 13.84 24.44ZM27.52 15.72C27.7067 14.8133 27.9467 13.68 28.24 12.32C28.56 10.9333 28.7467 10.12 28.8 9.88C27.52 11.1067 26.6267 12.0133 26.12 12.6C25.6133 13.16 24.72 14.2533 23.44 15.88C23.8933 15.8533 24.44 15.84 25.08 15.84C25.7467 15.8133 26.2933 15.7867 26.72 15.76C27.1467 15.7333 27.4133 15.72 27.52 15.72ZM61.6628 23.36L62.5028 24.04C62.0495 25.16 61.3295 26.1067 60.3428 26.88C59.3828 27.6533 58.5028 28.04 57.7028 28.04C56.9295 28.04 56.3161 27.7733 55.8628 27.24C55.4095 26.68 55.1828 25.96 55.1828 25.08C55.1828 24.2 55.3295 23.0667 55.6228 21.68C54.3695 23.6533 53.0228 25.2 51.5828 26.32C50.1428 27.44 48.9295 28 47.9428 28C46.4495 28 45.7028 27.0533 45.7028 25.16C45.7028 24.9733 45.8895 23.8267 46.2628 21.72C45.0095 23.6667 43.7428 25.1333 42.4628 26.12C41.2095 27.08 40.0761 27.56 39.0628 27.56C37.5695 27.56 36.8228 26.6133 36.8228 24.72L38.3428 23.28C38.3428 23.76 38.5161 24.1733 38.8628 24.52C39.2361 24.8667 39.6628 25.04 40.1428 25.04C41.0228 25.04 42.2095 24.2933 43.7028 22.8C45.2228 21.3067 46.6095 19.3467 47.8628 16.92C48.1295 16.3867 48.4361 15.76 48.7828 15.04C49.1561 14.2933 49.4228 13.76 49.5828 13.44C49.7428 13.12 49.9295 12.7733 50.1428 12.4C50.4895 11.8133 50.8495 11.52 51.2228 11.52C51.5961 11.52 51.9028 11.6667 52.1428 11.96C52.3828 12.2533 52.5028 12.6 52.5028 13C52.5028 13.3733 52.3828 13.8133 52.1428 14.32C51.9295 14.8267 51.5695 15.52 51.0628 16.4C50.5561 17.2533 50.1561 17.96 49.8628 18.52C49.1695 20.3333 48.8228 21.5733 48.8228 22.24C48.8228 22.9067 48.9961 23.4133 49.3428 23.76C49.7161 24.1067 50.1428 24.28 50.6228 24.28C51.5295 24.28 52.6095 23.5867 53.8628 22.2C55.1428 20.7867 56.4628 18.6933 57.8228 15.92C57.9828 15.5733 58.1695 15.1867 58.3828 14.76C58.5961 14.3067 58.7561 13.9733 58.8628 13.76C58.9695 13.52 59.0895 13.2533 59.2228 12.96C59.3828 12.6667 59.5028 12.4533 59.5828 12.32C59.6895 12.16 59.7961 12.0133 59.9028 11.88C60.1428 11.64 60.4095 11.52 60.7028 11.52C61.0228 11.52 61.3028 11.6667 61.5428 11.96C61.7828 12.2533 61.9028 12.6 61.9028 13C61.9028 13.3733 61.2361 15.0267 59.9028 17.96C58.5961 20.8667 57.9428 22.6267 57.9428 23.24C57.9428 23.8533 58.0628 24.3067 58.3028 24.6C58.5695 24.8933 58.8228 25.04 59.0628 25.04C59.3295 25.04 59.5295 25.0267 59.6628 25C59.7961 24.9733 59.9295 24.92 60.0628 24.84C60.1961 24.76 60.3028 24.6933 60.3828 24.64C60.4895 24.5867 60.6095 24.4933 60.7428 24.36L61.0228 24.08C61.1028 24 61.2095 23.88 61.3428 23.72C61.5028 23.5333 61.6095 23.4133 61.6628 23.36ZM81.7134 23.32L82.5534 24C82.1001 25.12 81.3801 26.0667 80.3934 26.84C79.4334 27.6133 78.5534 28 77.7534 28C76.9801 28 76.3668 27.7333 75.9134 27.2C75.4601 26.64 75.2334 25.92 75.2334 25.04C75.2334 24.16 75.3801 23.0267 75.6734 21.64C74.4201 23.6133 73.0734 25.16 71.6334 26.28C70.1934 27.4 68.9801 27.96 67.9934 27.96C66.5001 27.96 65.7534 27.0667 65.7534 25.28C65.7534 23.4933 66.3668 21.0933 67.5934 18.08C68.8468 15.04 69.7401 13.3067 70.2734 12.88L72.1934 13.72C71.1001 15.48 70.2734 17.2133 69.7134 18.92C69.1534 20.6267 68.8734 21.7733 68.8734 22.36C68.8734 22.92 69.0468 23.3733 69.3934 23.72C69.7668 24.0667 70.1934 24.24 70.6734 24.24C71.7401 24.24 73.0601 23.2667 74.6334 21.32C76.2334 19.3467 77.8601 16.4133 79.5134 12.52L81.5534 13.44C81.5001 13.6533 80.8868 15.2 79.7134 18.08C78.5668 20.96 77.9934 22.6933 77.9934 23.28C77.9934 23.84 78.1134 24.2667 78.3534 24.56C78.6201 24.8533 78.8734 25 79.1134 25C79.3801 25 79.5801 24.9867 79.7134 24.96C79.8468 24.9333 79.9801 24.88 80.1134 24.8C80.2468 24.72 80.3534 24.6533 80.4334 24.6C80.5401 24.5467 80.6601 24.4533 80.7934 24.32L81.0734 24C81.1534 23.9467 81.2601 23.84 81.3934 23.68C81.5534 23.4933 81.6601 23.3733 81.7134 23.32ZM94.3934 23.28L95.1934 23.92C94.3934 24.9867 93.2868 25.9333 91.8734 26.76C90.4868 27.5867 89.3668 28 88.5134 28C87.6868 28 87.0468 27.8267 86.5934 27.48C86.1668 27.1067 85.9534 26.6267 85.9534 26.04C85.9534 25.4533 86.4601 24.5867 87.4734 23.44C88.4868 22.2667 89.5001 21.0933 90.5134 19.92C91.5534 18.7467 92.0734 17.8933 92.0734 17.36C92.0734 16.8267 91.9268 16.3867 91.6334 16.04C91.3668 15.6667 90.9134 15.48 90.2734 15.48C89.6334 15.48 88.4734 16.0267 86.7934 17.12L86.4334 15.72C87.6334 14.7867 88.9001 14.0267 90.2334 13.44C91.5934 12.8533 92.6468 12.56 93.3934 12.56C94.1401 12.56 94.7134 12.7333 95.1134 13.08C95.5401 13.4267 95.7534 13.9733 95.7534 14.72C95.7534 15.4667 94.9134 17.04 93.2334 19.44C92.8868 19.92 92.5268 20.4267 92.1534 20.96C91.7801 21.4933 91.5001 21.88 91.3134 22.12C91.1534 22.36 90.9934 22.6133 90.8334 22.88C90.5668 23.28 90.4334 23.6 90.4334 23.84C90.4334 24.0533 90.5401 24.2667 90.7534 24.48C90.9934 24.6933 91.2201 24.8 91.4334 24.8C91.6734 24.8 91.8734 24.7867 92.0334 24.76C92.1934 24.7067 92.3668 24.6267 92.5534 24.52C92.7401 24.3867 92.9001 24.28 93.0334 24.2L94.3934 23.28ZM108.739 16.12C109.432 17.2667 109.779 18.5333 109.779 19.92C109.779 22.08 109.032 24.0133 107.539 25.72C106.046 27.4 104.286 28.24 102.259 28.24C100.712 28.24 99.4991 27.8 98.6191 26.92C97.7657 26.0133 97.3391 24.7733 97.3391 23.2C97.3391 20.6667 98.3257 18.4 100.299 16.4C102.272 14.3733 104.486 13.36 106.939 13.36C107.392 13.36 107.712 13.3733 107.899 13.4L108.019 14.72C105.886 14.72 104.112 15.3333 102.699 16.56C101.286 17.7867 100.579 19.36 100.579 21.28C100.579 22.4267 100.859 23.36 101.419 24.08C101.979 24.7733 102.792 25.12 103.859 25.12C104.952 25.12 105.819 24.64 106.459 23.68C107.099 22.72 107.419 21.6 107.419 20.32C107.419 19.0133 107.166 17.8267 106.659 16.76L108.739 16.12Z" fill="#57358A"/>
</svg>
