<svg width="1920" height="791" viewBox="0 0 1920 791" fill="none" xmlns="http://www.w3.org/2000/svg">
<path d="M9.99478e-05 0.516113C0.000204584 192.508 -1.44931e-05 581.988 7.65656e-07 790.516H1019.84L976.231 665.904C965.112 634.433 963.459 600.393 971.476 567.992C979.444 535.79 977.861 501.965 966.921 470.649L957.709 444.28C946.227 411.409 943.521 376.111 949.86 341.874L962.879 271.56C970.863 228.441 964.458 183.894 944.653 144.771L871.623 0.516113H9.99478e-05Z" fill="#FBC009"/>
<path d="M871.623 0.516113L944.653 144.771C964.458 183.894 970.863 228.441 962.879 271.56L949.86 341.874C943.521 376.111 946.227 411.409 957.709 444.28L966.921 470.649C977.861 501.965 979.444 535.79 971.476 567.992C963.459 600.393 965.112 634.433 976.231 665.904L1019.84 790.516L1920 790.516V0.515869L871.623 0.516113Z" fill="#57368A"/>
</svg>
