<svg width="1921" height="791" viewBox="0 0 1921 791" fill="none" xmlns="http://www.w3.org/2000/svg">
<path d="M0.545022 0.592529C0.545126 192.584 0.544907 582.064 0.544923 790.593L1006.67 790.592L963.063 665.98C951.944 634.509 950.291 600.469 958.308 568.068C966.275 535.867 964.693 502.042 953.753 470.725L944.541 444.356C933.058 411.485 930.353 376.187 936.692 341.95L949.71 271.636C957.694 228.518 951.29 183.97 931.484 144.848L858.455 0.592224L0.545022 0.592529Z" fill="#FBC009"/>
<path d="M858.455 0.592224L931.484 144.848C951.29 183.97 957.694 228.518 949.71 271.636L936.692 341.95C930.353 376.187 933.058 411.485 944.541 444.356L953.753 470.725C964.693 502.042 966.275 535.867 958.308 568.068C950.291 600.469 951.944 634.509 963.063 665.98L1006.67 790.592H1920.54V0.592285L858.455 0.592224Z" fill="#57368A"/>
</svg>
