<svg width="200" height="55" viewBox="0 0 200 55" fill="none" xmlns="http://www.w3.org/2000/svg">
<path d="M51.3088 4.16544C51.2336 4.63075 50.8532 5.66704 48.9719 6.32538C46.5007 7.18895 43.8668 4.83598 44.7434 1.42641C45.7136 1.13788 46.5475 0.881871 47.1678 0.676647C49.281 -0.0243668 50.6315 1.26386 51.3088 4.16544Z" fill="white"/>
<path d="M13.6961 22.6996C12.3883 22.6996 12.1504 22.403 12.0507 22.0636C11.9287 21.6369 11.7883 21.1554 17.6642 16.8578C20.4385 14.8259 23.2839 12.8875 23.3123 12.8671C23.4202 12.7944 23.5526 12.7674 23.6804 12.7922C23.7437 12.8044 23.8039 12.829 23.8577 12.8646C23.9114 12.9001 23.9577 12.9458 23.9937 12.9992C24.0298 13.0526 24.0549 13.1125 24.0678 13.1756C24.0807 13.2387 24.081 13.3037 24.0687 13.3669C24.0565 13.4301 24.0318 13.4903 23.9963 13.544C23.9607 13.5977 23.9149 13.6439 23.8615 13.6799C19.1835 16.8639 14.2128 20.5397 13.1714 21.7284C14.2697 21.8604 17.7253 21.3707 20.6968 20.7693C20.7594 20.7559 20.824 20.755 20.887 20.7667C20.95 20.7783 21.0101 20.8022 21.0638 20.837C21.1175 20.8718 21.1639 20.9169 21.2002 20.9696C21.2365 21.0223 21.2621 21.0816 21.2754 21.1442C21.2888 21.2067 21.2896 21.2713 21.278 21.3342C21.2664 21.3972 21.2425 21.4572 21.2076 21.5108C21.1728 21.5645 21.1277 21.6108 21.075 21.6471C21.0222 21.6834 20.9628 21.7089 20.9002 21.7222C20.8798 21.7222 18.8663 22.1286 16.8324 22.4233C15.7943 22.585 14.7465 22.6774 13.6961 22.6996Z" fill="white"/>
<path d="M36.4288 6.04669C38.4627 6.45307 40.7 5.89836 41.3997 6.10359C42.0994 6.30881 43.403 9.24901 41.5136 11.6914C39.6241 14.1338 35.6153 13.7477 33.9882 10.8136C32.3611 7.8795 34.4499 5.65046 36.4288 6.04669Z" fill="#FFC200"/>
<path d="M29.4343 35.8469C28.7855 40.8718 24.1625 41.715 24.1625 41.715C24.1625 41.715 25.1428 43.9908 23.3652 44.1676C21.5875 44.3443 22.1448 41.9914 22.1448 41.9914C22.1448 41.9914 19.4296 42.1397 18.1035 39.9595C21.3354 37.2468 23.9326 31.7789 25.9502 27.2051C25.9543 27.2051 30.0892 30.8199 29.4343 35.8469Z" fill="#FFC200"/>
<path d="M17.9877 40.099L17.9226 39.9586H18.1057L18.2257 39.8203L18.2908 39.9606H17.9226H18.1077L17.9877 40.099Z" fill="#6C4A8D"/>
<path d="M25.6797 43.2768C26.0167 43.2768 26.2899 43.0039 26.2899 42.6672C26.2899 42.3305 26.0167 42.0576 25.6797 42.0576C25.3428 42.0576 25.0696 42.3305 25.0696 42.6672C25.0696 43.0039 25.3428 43.2768 25.6797 43.2768Z" fill="#FFC200"/>
<path d="M45.6976 48.2445C45.6026 48.2094 45.5097 48.1693 45.4189 48.1245L45.5775 47.793C45.7301 47.8642 45.8236 47.9007 45.8277 47.9028L45.6976 48.2445Z" fill="#6C4A8D"/>
<path d="M48.5062 36.4153L48.3313 36.0919L48.4289 36.041L48.5957 36.3685L48.5062 36.4153Z" fill="#6C4A8D"/>
<path d="M43.8425 48.4626C44.1401 48.4626 44.3814 48.2216 44.3814 47.9242C44.3814 47.6268 44.1401 47.3857 43.8425 47.3857C43.5448 47.3857 43.3035 47.6268 43.3035 47.9242C43.3035 48.2216 43.5448 48.4626 43.8425 48.4626Z" fill="#FFC200"/>
<path d="M37.8179 31.9092C37.82 31.8204 37.8396 31.7328 37.8756 31.6515C37.9116 31.5703 37.9634 31.4969 38.0278 31.4357C38.0922 31.3745 38.1681 31.3266 38.2511 31.2948C38.3341 31.2629 38.4226 31.2478 38.5114 31.2503C38.5728 31.2501 38.6336 31.2623 38.6902 31.2861C38.7468 31.3098 38.798 31.3447 38.8409 31.3885C38.727 31.4435 38.6375 31.4882 38.5663 31.533C38.3268 31.6773 38.0766 31.8031 37.8179 31.9092Z" fill="white"/>
<path d="M41.5849 30.6489C41.5552 30.5798 41.5407 30.505 41.5424 30.4297C41.5441 30.3545 41.5619 30.2804 41.5947 30.2126C41.6274 30.1448 41.6744 30.0848 41.7323 30.0367C41.7903 29.9886 41.8579 29.9535 41.9306 29.9337C42.0643 29.8923 42.207 29.8894 42.3423 29.9254C42.4775 29.9613 42.5999 30.0346 42.6954 30.1369C42.5611 30.1796 42.4432 30.1999 42.3354 30.2243C42.185 30.2334 42.0389 30.2775 41.9086 30.353C41.7783 30.4285 41.6675 30.5333 41.5849 30.6591V30.6489Z" fill="white"/>
<path d="M39.2927 33.2879C39.3214 33.4469 39.4067 33.5901 39.5327 33.6913C39.6588 33.7925 39.8172 33.8448 39.9788 33.8386C40.1404 33.8324 40.2943 33.7682 40.4122 33.6577C40.5302 33.5472 40.6043 33.3978 40.6208 33.2371C40.7103 32.8572 40.5252 32.2638 40.4601 31.8818C40.8059 32.2882 41.8167 33.6618 42.252 32.7088C42.3147 32.5023 42.3314 32.2845 42.3008 32.0708C42.4035 32.2807 42.4451 32.5151 42.4208 32.7474C42.405 32.8812 42.3483 33.0068 42.2584 33.1072C42.1685 33.2076 42.0497 33.2778 41.9184 33.3083C41.3713 33.3794 40.9828 33.0075 40.6411 32.658L40.9564 32.4995C41.0784 33.0258 41.0011 33.7187 40.4642 34.0011C39.9699 34.2714 39.193 33.8711 39.2927 33.2879Z" fill="white"/>
<path d="M0 52.3571C6.49623 50.7072 13.2203 50.0509 19.8914 49.6994C23.2412 49.5389 26.5849 49.4677 29.9408 49.5449C37.7449 49.7705 45.5346 50.8555 53.1861 52.3571C48.7523 51.9101 44.3224 51.4814 39.8885 51.1746C36.8377 50.949 33.8011 50.7925 30.7544 50.7418C28.2629 50.7418 25.7612 50.7844 23.2717 50.8596C15.5023 51.0811 7.7308 51.4854 0 52.3571Z" fill="white"/>
<path d="M30.1624 20.7143C29.839 20.9662 29.4973 21.2182 29.1455 21.4701C25.6879 23.9085 19.2262 28.6672 18.1279 27.001C17.6743 26.3122 18.5672 24.5465 19.7753 22.7055C24.4858 20.0478 27.9393 19.3468 29.2634 19.552C29.959 19.6597 30.1258 20.3526 30.1624 20.7143Z" fill="white"/>
<path d="M38.9957 7.77539C38.4059 8.35042 37.7591 8.8076 37.5984 9.64882C37.5354 9.9089 37.4988 10.1934 37.4256 10.4941C36.7117 9.22415 37.5862 7.8526 38.9957 7.77539Z" fill="#57358A"/>
<path d="M18.9028 27.831C18.7896 27.8322 18.6766 27.8227 18.5652 27.8026C18.3962 27.7758 18.2346 27.7145 18.0905 27.6226C17.9463 27.5306 17.8226 27.41 17.7272 27.2682C17.353 26.6992 17.235 25.5878 19.6635 22.0034C21.0241 19.9979 22.6492 18.0046 23.2614 17.2548L23.42 17.0517C23.42 16.8485 23.3753 16.3506 23.3265 15.8325C23.2492 15.0197 23.1231 13.7823 23.0377 12.175C22.8343 8.72077 24.7523 6.48565 28.8912 5.32136C29.9082 5.04096 31.3603 4.64067 33.0546 4.17942C37.8322 2.87696 44.3731 1.09496 47.0253 0.213103C48.1582 -0.162803 49.1446 -0.0408817 49.9521 0.574791C51.807 1.99714 52.5697 6.03456 52.2199 12.6038C52.0165 16.3283 50.3894 19.2319 47.6375 20.7782C45.0342 22.2412 42.0647 22.1396 40.4783 21.2862L39.8376 20.9387C39.3189 20.6583 38.8206 20.3881 38.5359 20.2661C38.5359 20.4917 38.5765 20.8331 38.6111 21.1683L38.6417 21.4873C38.6479 21.5508 38.6416 21.615 38.6231 21.676C38.6046 21.7371 38.5742 21.7939 38.5337 21.8433C38.4931 21.8926 38.4433 21.9335 38.387 21.9636C38.3306 21.9937 38.2689 22.0124 38.2054 22.0187C38.1418 22.0249 38.0776 22.0187 38.0165 22.0001C37.9554 21.9816 37.8985 21.9513 37.8491 21.9108C37.7997 21.8703 37.7588 21.8205 37.7286 21.7643C37.6985 21.708 37.6798 21.6464 37.6735 21.5828L37.643 21.2659C37.5311 20.1808 37.4762 19.6403 37.9135 19.3457C38.3508 19.0511 38.902 19.3234 40.3013 20.0853L40.94 20.4307C42.2599 21.1399 44.8877 21.2069 47.1616 19.9309C48.8985 18.9576 51.026 16.883 51.2477 12.5509C51.6545 4.79305 50.4504 2.17593 49.3623 1.34691C48.8172 0.940522 48.1521 0.863309 47.3284 1.14371C44.6518 2.0337 38.0945 3.81975 33.3068 5.12628C31.6146 5.58753 30.1522 5.98581 29.1495 6.26621C25.4173 7.30859 23.8309 9.1109 24.0058 12.1283C24.0973 13.7132 24.2092 14.8897 24.2905 15.7471C24.4105 17.0273 24.437 17.2934 24.2905 17.5332C24.2641 17.5739 24.2336 17.6104 24.018 17.8746C17.9326 25.3317 18.4635 26.6119 18.5428 26.7399C18.559 26.7663 18.5997 26.8252 18.7462 26.8536C20.3326 27.1483 25.458 23.501 28.2221 21.5402L28.8729 21.0789C30.8398 19.7045 32.6219 18.0833 34.1752 16.2551C34.2562 16.1538 34.3741 16.0888 34.503 16.0743C34.6319 16.0598 34.7613 16.0971 34.8627 16.1779C34.9641 16.2587 35.0292 16.3765 35.0437 16.5053C35.0582 16.6341 35.0209 16.7634 34.94 16.8647C34.8586 16.9683 32.9061 19.4229 29.4363 21.8795L28.7854 22.3408C24.6851 25.2322 20.8573 27.831 18.9028 27.831Z" fill="white"/>
<path d="M11.8699 41.173C11.819 41.173 10.8204 41.1892 10.3953 40.5898C9.83395 39.7912 10.1472 38.7428 11.1641 38.0479C10.859 39.2101 11.0604 40.4435 11.8699 41.173Z" fill="#FFC200"/>
<path d="M45.498 47.9616C44.9163 47.6812 43.5394 46.8806 43.1815 45.4603C42.4147 42.4246 43.7916 38.6574 48.4187 36.2598C48.7604 39.7283 47.3773 44.5419 45.498 47.9616Z" fill="#FFC200"/>
<path d="M41.2612 52.8379C41.1587 52.8391 41.0567 52.8219 40.9602 52.7871C40.8271 52.7398 40.7119 52.6525 40.6303 52.5372C40.5488 52.4219 40.5048 52.2842 40.5046 52.143C40.5046 51.6391 40.9887 51.1128 41.7575 50.804C42.1891 50.6524 42.638 50.5554 43.0938 50.5154C43.1853 50.4199 43.2768 50.3123 43.3724 50.2086C45.9473 47.2928 48.4856 40.4554 47.8999 36.0075C47.658 34.4934 47.2691 33.0065 46.7385 31.5677C46.7157 31.5072 46.7052 31.4427 46.7077 31.378C46.7102 31.3134 46.7257 31.2499 46.7531 31.1912C46.7805 31.1326 46.8194 31.08 46.8674 31.0366C46.9154 30.9932 46.9716 30.9598 47.0327 30.9384C47.0939 30.917 47.1587 30.9081 47.2233 30.912C47.288 30.916 47.3512 30.9329 47.4092 30.9616C47.4673 30.9903 47.519 31.0303 47.5613 31.0793C47.6037 31.1282 47.6358 31.1852 47.6558 31.2467C48.209 32.7478 48.6136 34.2995 48.8639 35.8795C49.4619 40.4147 47.1188 47.0286 44.5093 50.363C47.1717 50.0582 49.289 49.4995 49.3093 47.0307C49.3093 46.3723 49.3093 45.7384 49.3093 45.1247C49.2829 42.2801 49.2646 40.2481 50.2815 39.2789C50.4912 39.0889 50.7389 38.9455 51.0082 38.8583C51.2774 38.7711 51.5622 38.742 51.8436 38.773C52.0406 38.7879 52.2325 38.843 52.4074 38.9349C52.5823 39.0268 52.7365 39.1536 52.8605 39.3073C53.8774 40.5265 53.5663 43.5561 53.5276 43.8995C53.5116 44.026 53.4464 44.1412 53.346 44.2201C53.2457 44.299 53.1184 44.3353 52.9915 44.3211C52.8646 44.307 52.7483 44.2435 52.6679 44.1445C52.5874 44.0455 52.5492 43.9188 52.5615 43.7918C52.6876 42.6559 52.6795 40.6037 52.1141 39.9311C52.0746 39.877 52.0238 39.8323 51.9651 39.8C51.9064 39.7677 51.8413 39.7486 51.7744 39.7442C51.2924 39.7137 51.0687 39.8661 50.9446 39.986C50.2348 40.6565 50.2531 42.723 50.2754 45.1166C50.2754 45.7262 50.2876 46.3723 50.2754 47.0388C50.2449 50.7613 46.5188 51.1392 44.0517 51.3871L43.5453 51.44C42.6422 52.3543 41.8429 52.8379 41.2612 52.8379Z" fill="white"/>
<path d="M34.9707 32.5585C34.8431 32.5585 34.7207 32.5084 34.6298 32.4191C34.5388 32.3298 34.4867 32.2084 34.4846 32.081C34.3849 26.8874 34.7896 25.6946 35.6194 25.2212C35.7185 25.1635 35.8299 25.1299 35.9443 25.1232C36.0588 25.1165 36.1733 25.1369 36.2784 25.1826C36.8316 25.4122 37.2812 26.4403 37.5822 27.3547C38.1393 26.7816 38.7723 26.2874 39.4635 25.8856C40.2771 25.4549 41.2553 25.4793 41.8614 25.5605C41.9367 24.8473 42.1706 23.7318 42.9008 23.3254C42.9798 23.2816 43.0672 23.2548 43.1572 23.2467C43.2472 23.2387 43.3379 23.2496 43.4235 23.2787C44.0133 23.4656 44.8757 24.7661 45.9882 27.1393C46.0324 27.2544 46.0312 27.3819 45.9848 27.4961C45.9384 27.6103 45.8503 27.7026 45.7383 27.7543C45.6263 27.806 45.4988 27.8132 45.3817 27.7745C45.2645 27.7357 45.1666 27.654 45.1076 27.5457C44.1374 25.4752 43.5109 24.5913 43.2343 24.2946C42.9597 24.6604 42.8052 25.5361 42.7991 26.1335C42.7973 26.2071 42.7791 26.2793 42.7456 26.3448C42.7121 26.4103 42.6642 26.4674 42.6056 26.5119C42.547 26.5564 42.4791 26.5872 42.4069 26.6019C42.3348 26.6166 42.2603 26.6148 42.1889 26.5968C42.1767 26.5968 40.8466 26.2473 39.9191 26.735C38.9022 27.2694 37.7367 28.5942 37.7245 28.6084C37.6664 28.675 37.5911 28.7244 37.5069 28.7513C37.4226 28.7782 37.3326 28.7815 37.2466 28.7608C37.1607 28.7413 37.082 28.6985 37.0188 28.6372C36.9557 28.5759 36.9106 28.4985 36.8886 28.4134C36.6283 27.4441 36.2378 26.4789 35.9896 26.1579C35.5625 26.6679 35.3937 28.5596 35.4608 32.0505C35.4624 32.1793 35.4132 32.3036 35.3237 32.3964C35.2343 32.4893 35.1118 32.5431 34.9829 32.5463L34.9707 32.5585Z" fill="white"/>
<path d="M8.42659 51.373C8.05236 51.373 7.87134 51.247 7.76761 51.0032C7.59067 50.5826 7.6517 49.9873 10.2795 47.2503C11.0341 46.47 11.8049 45.7162 12.3276 45.2183C11.3696 44.909 10.4787 44.4216 9.70184 43.7818C7.89372 42.2639 6.6795 39.4192 8.29034 36.7594C9.32558 35.0486 10.7086 34.057 12.5208 33.7278C12.7381 33.6895 12.9619 33.7216 13.1596 33.8195C13.3573 33.9175 13.5183 34.0761 13.6193 34.2721C13.7202 34.4681 13.7557 34.6912 13.7205 34.9088C13.6853 35.1264 13.5814 35.327 13.4239 35.4813C13.0212 35.8758 12.6581 36.3086 12.3398 36.7736C11.4693 38.0355 11.3472 39.7829 12.0693 40.6668C12.7445 41.4958 14.1032 41.5345 15.9093 40.7765C20.3126 38.9234 23.7052 31.1513 26.1824 25.4762L26.4997 24.7508C26.5515 24.6328 26.6481 24.5401 26.7682 24.4932C26.8884 24.4464 27.0222 24.4491 27.1404 24.5008C27.2585 24.5526 27.3512 24.6491 27.3981 24.7691C27.4451 24.8891 27.4423 25.0229 27.3905 25.1409L27.0753 25.8643C24.5309 31.6898 21.0489 39.6692 16.2957 41.6726C13.2815 42.9426 11.8862 41.9713 11.3228 41.2805C10.3059 40.043 10.4117 37.8689 11.5466 36.223C11.9012 35.7051 12.3058 35.2233 12.7547 34.7844C12.7648 34.7767 12.7715 34.7654 12.7734 34.7529C12.7753 34.7404 12.7722 34.7276 12.7649 34.7173C12.7445 34.6767 12.7181 34.6808 12.7018 34.6848C11.1601 34.9653 10.0252 35.7841 9.13031 37.2633C7.81642 39.4334 8.83538 41.7783 10.3364 43.0381C11.2209 43.7607 12.2678 44.2579 13.3872 44.4868C13.4771 44.5019 13.5609 44.5416 13.6295 44.6016C13.6981 44.6615 13.7487 44.7392 13.7757 44.8262C13.802 44.9131 13.8033 45.0056 13.7796 45.0932C13.7559 45.1809 13.708 45.2601 13.6415 45.322C11.6869 47.1507 9.55745 49.3533 8.9005 50.3449C10.2429 50.0563 13.7147 48.7986 16.3506 47.8415C23.095 45.4032 23.7641 45.259 24.1729 45.6532C24.5817 46.0474 24.417 46.6691 24.2319 47.4189C24.0631 48.0976 23.8536 48.9408 24.1302 49.3838C24.2066 49.4868 24.3032 49.5732 24.414 49.6378C24.5248 49.7024 24.6476 49.7439 24.775 49.7597C25.6902 49.9629 26.9939 48.1524 28.0393 46.7118C29.3634 44.8709 30.5085 43.2819 31.7573 43.8549C33.0061 44.4279 32.8271 46.155 32.6624 47.677C32.5871 48.3678 32.4732 49.4102 32.6624 49.6357C32.6624 49.6357 32.6827 49.6581 32.7499 49.6581C32.7641 49.6581 32.8068 49.6418 32.8739 49.5768C33.9091 48.5446 34.6657 42.7008 34.5925 36.2718C34.592 36.1429 34.6423 36.0191 34.7325 35.927C34.8227 35.835 34.9456 35.7822 35.0746 35.7801C35.2025 35.7811 35.3249 35.832 35.4157 35.922C35.5065 36.012 35.5585 36.1339 35.5606 36.2616C35.6237 41.9815 35.0237 48.8026 33.5532 50.2656C33.4485 50.3805 33.321 50.4723 33.1789 50.5353C33.0367 50.5983 32.883 50.631 32.7275 50.6314C32.5768 50.6332 32.4276 50.6027 32.2897 50.5421C32.1518 50.4814 32.0286 50.392 31.9282 50.2799C31.4441 49.7312 31.5519 48.7315 31.678 47.5733C31.8041 46.4151 31.9566 45.0212 31.3363 44.7286C30.8156 44.4889 29.6583 46.0961 28.8122 47.2685C27.478 49.1237 26.097 51.0418 24.5533 50.7106C24.2978 50.6694 24.0536 50.5759 23.8359 50.436C23.6182 50.2962 23.4318 50.113 23.2882 49.8979C22.794 49.1054 23.0584 48.0407 23.2719 47.1852C23.3248 46.9719 23.396 46.6833 23.4265 46.4822C22.4096 46.6711 19.253 47.8172 16.6659 48.7559C14.6889 49.4732 12.6449 50.2148 11.0829 50.7187C9.71609 51.1617 8.90862 51.373 8.42659 51.373Z" fill="white"/>
<path d="M40.4885 31.7773C39.675 31.7651 39.4716 32.1044 40.1367 32.3665C40.8017 32.6286 41.3408 31.7569 41.2411 31.4867C41.1414 31.2165 40.4885 31.7773 40.4885 31.7773Z" fill="white"/>
<path d="M42.1404 31.6469C43.0803 30.6828 44.1077 29.8081 45.2095 29.0338C46.3139 28.2739 47.4956 27.5627 48.8014 27.2051C46.4298 28.4588 44.3634 30.1575 42.1404 31.6469Z" fill="white"/>
<path d="M42.3639 31.9358C43.4629 31.1596 44.632 30.4875 45.856 29.9282C47.0764 29.3796 48.374 28.896 49.7204 28.7822C47.1597 29.595 44.8167 30.8771 42.3618 31.9358H42.3639Z" fill="white"/>
<path d="M39.9456 32.6514C37.3422 33.2609 34.69 33.6247 32.1558 34.5065C33.3049 33.7953 34.631 33.4133 35.9408 33.1228C37.2583 32.8421 38.5989 32.6843 39.9456 32.6514Z" fill="white"/>
<path d="M40.0044 33.0098C37.5637 34.0907 35.0152 34.9238 32.6824 36.2608C33.683 35.3505 34.9197 34.7328 36.1502 34.2086C37.3936 33.6921 38.6825 33.2928 40.0003 33.0158L40.0044 33.0098Z" fill="white"/>
<path d="M63.7927 23.7956V5.63019H72.0971C73.2309 5.61277 74.3604 5.7725 75.4449 6.10362C76.3468 6.37263 77.1842 6.82275 77.9059 7.4264C78.5341 7.97222 79.0376 8.64644 79.3825 9.40346C79.7211 10.1751 79.8959 11.0084 79.8959 11.8509C79.8959 12.6934 79.7211 13.5268 79.3825 14.2984C79.037 15.0533 78.5335 15.7254 77.9059 16.2693C77.1842 16.873 76.3468 17.3231 75.4449 17.5921C74.3609 17.926 73.2313 18.0885 72.0971 18.0737H67.4314V23.7875L63.7927 23.7956ZM67.4314 15.1051H72.0971C73.289 15.1051 74.2591 14.784 75.0076 14.1419C75.7561 13.5019 76.1303 12.7399 76.1303 11.8621C76.1303 10.9843 75.7561 10.2244 75.0076 9.58227C74.2591 8.94018 73.289 8.61914 72.0971 8.61914H67.4314V15.1051Z" fill="white"/>
<path d="M80.9485 5.62988H84.9816L89.9138 16.1431H90.166L95.1124 5.62988H99.1314L90.5606 23.7953H86.5396L88.8481 18.8678H87.3146L80.9485 5.62988Z" fill="white"/>
<path d="M101.237 23.7953V5.62988H104.875V13.0281H108.247C109.237 13.0281 110.032 12.7829 110.631 12.2925C111.249 11.7776 111.688 11.0817 111.888 10.3033L113.182 5.62988H116.946L115.653 10.3033C115.463 11.0003 115.206 11.6774 114.886 12.3251C114.654 12.8133 114.364 13.2724 114.024 13.6925C113.783 13.9751 113.521 14.238 113.239 14.4789C113.056 14.6437 112.851 14.7806 112.628 14.8853L112.401 14.9869V15.1129L118.374 23.8034H114.089L108.762 16.0252H104.875V23.8034L101.237 23.7953Z" fill="white"/>
<path d="M118.836 23.7953L126.361 5.62988H130.915L138.441 23.7953H134.533L133.11 20.1602H124.144L122.721 23.7953H118.836ZM125.479 17.0554H131.83L128.725 9.53727H128.584L125.479 17.0554Z" fill="white"/>
<path d="M63.7927 51.1107V32.9453H80.2672V51.1107H76.6408V35.9363H67.4314V51.1107H63.7927Z" fill="white"/>
<path d="M84.6829 46.9825C83.8709 45.4576 83.4463 43.7568 83.4463 42.0296C83.4463 40.3024 83.8709 38.6017 84.6829 37.0768C85.4888 35.6329 86.6876 34.4466 88.1405 33.655C89.6978 32.8486 91.4263 32.4277 93.1804 32.4277C94.9346 32.4277 96.663 32.8486 98.2204 33.655C99.6733 34.4466 100.872 35.6329 101.678 37.0768C102.49 38.6017 102.915 40.3024 102.915 42.0296C102.915 43.7568 102.49 45.4576 101.678 46.9825C100.872 48.4261 99.6735 49.6119 98.2204 50.4022C96.6634 51.2099 94.9348 51.6315 93.1804 51.6315C91.4261 51.6315 89.6974 51.2099 88.1405 50.4022C86.6874 49.6119 85.4884 48.4261 84.6829 46.9825ZM88.9174 37.3491C87.7812 38.552 87.2124 40.1098 87.211 42.0225C87.2097 43.9352 87.7784 45.493 88.9174 46.6959C89.4716 47.2682 90.1353 47.7232 90.869 48.0339C91.6028 48.3447 92.3916 48.5048 93.1886 48.5048C93.9855 48.5048 94.7744 48.3447 95.5081 48.0339C96.2419 47.7232 96.9056 47.2682 97.4597 46.6959C98.5974 45.493 99.1655 43.9352 99.1642 42.0225C99.1628 40.1098 98.5947 38.552 97.4597 37.3491C96.9059 36.7764 96.2423 36.3209 95.5085 36.0098C94.7747 35.6987 93.9857 35.5384 93.1886 35.5384C92.3915 35.5384 91.6025 35.6987 90.8687 36.0098C90.1349 36.3209 89.4713 36.7764 88.9174 37.3491Z" fill="white"/>
<path d="M105.382 51.1107L107.591 32.9453H111.608L116.806 44.2327H116.934L122.133 32.9453H126.144L128.359 51.1107H124.592L123.168 38.7851H123.038L118.5 48.5139H115.246L110.694 38.7851H110.566L109.142 51.1107H105.382Z" fill="white"/>
<path d="M132.054 46.9825C131.242 45.4576 130.817 43.7568 130.817 42.0296C130.817 40.3024 131.242 38.6017 132.054 37.0768C132.861 35.6333 134.059 34.4471 135.512 33.655C137.069 32.8486 138.797 32.4277 140.552 32.4277C142.306 32.4277 144.034 32.8486 145.592 33.655C147.044 34.4474 148.242 35.6335 149.049 37.0768C149.859 38.6022 150.283 40.3028 150.283 42.0296C150.283 43.7565 149.859 45.4571 149.049 46.9825C148.243 48.4256 147.044 49.6112 145.592 50.4022C144.035 51.2099 142.306 51.6315 140.552 51.6315C138.797 51.6315 137.069 51.2099 135.512 50.4022C134.059 49.6115 132.86 48.4258 132.054 46.9825ZM136.289 37.3491C135.151 38.552 134.583 40.1098 134.584 42.0225C134.586 43.9352 135.154 45.493 136.289 46.6959C136.843 47.2682 137.506 47.7232 138.24 48.0339C138.974 48.3447 139.763 48.5048 140.56 48.5048C141.357 48.5048 142.145 48.3447 142.879 48.0339C143.613 47.7232 144.277 47.2682 144.831 46.6959C145.967 45.493 146.536 43.9352 146.537 42.0225C146.539 40.1098 145.97 38.552 144.831 37.3491C144.277 36.7764 143.613 36.3209 142.88 36.0098C142.146 35.6987 141.357 35.5384 140.56 35.5384C139.763 35.5384 138.974 35.6987 138.24 36.0098C137.506 36.3209 136.842 36.7764 136.289 37.3491Z" fill="white"/>
<path d="M153.451 51.1107V32.9453H157.091V48.1218H164.102V32.9453H167.729V48.1218H174.741V32.9453H178.38V48.1218H180.713V54.9998H177.086V51.1107H153.451Z" fill="white"/>
<path d="M183.515 51.1107V32.9453H187.154V45.399H187.282L196.374 32.9453H200V51.1107H196.374V38.6591H196.233L187.154 51.1107H183.515Z" fill="white"/>
</svg>
