<svg width="121" height="121" viewBox="0 0 121 121" fill="none" xmlns="http://www.w3.org/2000/svg">
<path d="M91.4435 12.0695C91.3379 12.7215 90.8038 14.173 88.1666 15.0954C84.7014 16.3084 81.0105 13.0063 82.2321 8.22667C83.5942 7.82476 84.7622 7.46621 85.6321 7.17706C88.5993 6.19395 90.5027 8.00114 91.4435 12.0695Z" fill="black"/>
<path d="M38.7081 38.0519C36.8728 38.0519 36.537 37.6355 36.4024 37.1584C36.2287 36.5613 36.0333 35.8847 44.2706 29.8603C48.1627 27.0151 52.1503 24.2956 52.1894 24.2681C52.2632 24.2173 52.3464 24.1814 52.4341 24.1626C52.5218 24.1438 52.6124 24.1425 52.7006 24.1587C52.7889 24.1749 52.8731 24.2082 52.9484 24.2569C53.0237 24.3056 53.0887 24.3686 53.1396 24.4424C53.1906 24.5161 53.2265 24.5992 53.2453 24.6868C53.2641 24.7744 53.2654 24.8649 53.2492 24.953C53.233 25.0411 53.1996 25.1252 53.1509 25.2005C53.1022 25.2757 53.0391 25.3406 52.9652 25.3915C46.4185 29.8531 39.4376 35.0072 37.9772 36.6683C39.5187 36.8519 44.3632 36.1681 48.5173 35.3238C48.6946 35.2877 48.8791 35.3235 49.03 35.4233C49.1809 35.5231 49.286 35.6787 49.3221 35.8558C49.3581 36.033 49.3223 36.2172 49.2224 36.3679C49.1225 36.5187 48.9668 36.6236 48.7894 36.6596C48.7619 36.6596 45.9336 37.238 43.0967 37.6413C41.0776 37.9348 39.6822 38.0519 38.7081 38.0519Z" fill="#1D1D1B"/>
<path d="M70.5789 14.7064C73.4462 15.2847 76.5813 14.4982 77.5511 14.7845C78.5209 15.0708 80.3576 19.194 77.7089 22.619C75.0601 26.044 69.4383 25.5004 67.1644 21.3872C64.8905 17.2741 67.807 14.1498 70.5789 14.7064Z" fill="white"/>
<path d="M36.149 64.2039H36.1461V63.6892L36.149 64.2039Z" fill="white"/>
<path d="M35.1591 59.8204H35.1576V59.3057L35.1591 59.8204Z" fill="white"/>
<path d="M60.7726 56.4753C59.8636 63.5218 53.3821 64.7045 53.3821 64.7045C53.3821 64.7045 54.7571 67.8938 52.2647 68.141C49.7722 68.3882 50.5596 65.089 50.5596 65.089C50.5596 65.089 46.7514 65.2972 44.8915 62.2423C49.4234 58.44 53.0651 50.7747 55.8919 44.3613C55.8963 44.3642 61.6816 49.433 60.7726 56.4753Z" fill="white"/>
<path d="M44.7234 62.4384L44.6322 62.2418H44.8899L45.0592 62.0481L45.149 62.2447H44.6337H44.8913L44.7234 62.4384Z" fill="white"/>
<path d="M55.5084 66.8959C55.9801 66.8959 56.3624 66.514 56.3624 66.0429C56.3624 65.5718 55.9801 65.1899 55.5084 65.1899C55.0368 65.1899 54.6544 65.5718 54.6544 66.0429C54.6544 66.514 55.0368 66.8959 55.5084 66.8959Z" fill="white"/>
<path d="M83.5753 73.8583C83.5681 73.8583 83.4219 73.8005 83.1859 73.6877L83.4089 73.2236C83.6202 73.3248 83.7519 73.3682 83.7577 73.3769L83.5753 73.8583Z" fill="white"/>
<path d="M87.5138 57.2772L87.2677 56.8247L87.4125 56.7524L87.6441 57.2108C87.5977 57.2324 87.5587 57.2541 87.5138 57.2772Z" fill="white"/>
<path d="M80.9742 74.1639C81.3915 74.1639 81.7298 73.826 81.7298 73.4092C81.7298 72.9924 81.3915 72.6545 80.9742 72.6545C80.5569 72.6545 80.2187 72.9924 80.2187 73.4092C80.2187 73.826 80.5569 74.1639 80.9742 74.1639Z" fill="white"/>
<path d="M72.5402 50.9654C72.543 50.8403 72.5706 50.7171 72.6214 50.6028C72.6723 50.4884 72.7453 50.3853 72.8363 50.2994C72.9273 50.2135 73.0345 50.1465 73.1516 50.1022C73.2687 50.0579 73.3935 50.0373 73.5186 50.0416C73.6044 50.0419 73.6892 50.0591 73.7682 50.0924C73.8472 50.1256 73.9188 50.1742 73.9789 50.2353C73.8212 50.3148 73.7054 50.3799 73.5939 50.4391C73.259 50.6417 72.9086 50.8177 72.546 50.9654H72.5402Z" fill="#1D1D1B"/>
<path d="M77.8086 49.1948C77.6016 48.8131 77.881 48.2998 78.2935 48.1914C78.4801 48.1321 78.6795 48.1262 78.8693 48.1742C79.0591 48.2222 79.2317 48.3223 79.3675 48.4632C79.1779 48.521 79.0143 48.55 78.8609 48.5832C78.3905 48.6598 78.0938 48.7827 77.8086 49.1948Z" fill="#1D1D1B"/>
<path d="M74.5967 52.8934C74.6361 53.1167 74.7552 53.3182 74.9318 53.4606C75.1085 53.603 75.3308 53.6767 75.5576 53.668C75.7844 53.6594 76.0005 53.569 76.1658 53.4136C76.331 53.2582 76.4344 53.0482 76.4567 52.8226C76.584 52.2905 76.3235 51.4592 76.2323 50.9229C76.7172 51.4881 78.1357 53.4182 78.7465 52.0795C78.8325 51.7898 78.8557 51.4852 78.8145 51.186C78.9579 51.4803 79.0155 51.8089 78.981 52.1344C78.9594 52.3218 78.8801 52.498 78.7542 52.6386C78.6282 52.7792 78.4616 52.8773 78.2775 52.9194C77.5089 53.0192 76.9661 52.4973 76.4842 52.0072L76.9285 51.7874C77.0979 52.5233 76.9893 53.4847 76.2395 53.8924C75.5448 54.2698 74.4549 53.7103 74.5967 52.8905V52.8934Z" fill="#1D1D1B"/>
<path d="M19.5053 79.623C28.6139 77.3098 38.0323 76.3903 47.3927 75.8973C52.0896 75.6717 56.7778 75.572 61.4819 75.6804C72.4244 75.9956 83.3496 77.5165 94.075 79.623C87.8583 78.9955 81.6474 78.3955 75.4322 77.9647C71.1652 77.6481 66.8924 77.4298 62.624 77.3589C59.1328 77.3459 55.6242 77.4168 52.1345 77.5237C41.2398 77.8346 30.3421 78.3999 19.5053 79.623Z" fill="#1D1D1B"/>
<path d="M61.7946 35.2663C61.3401 35.6181 60.8629 35.9708 60.3631 36.3246C55.5229 39.7495 46.4534 46.413 44.9148 44.0796C44.2779 43.1109 45.5299 40.6372 47.2234 38.0566C53.8338 34.3323 58.6725 33.3434 60.5295 33.6326C61.5051 33.7858 61.7425 34.7574 61.7946 35.2663Z" fill="black"/>
<path d="M74.1785 17.1296C73.3535 17.9364 72.4416 18.5754 72.2216 19.7566C72.1319 20.1194 72.0769 20.5185 71.977 20.9392C70.9768 19.1609 72.2043 17.2453 74.1785 17.1296Z" fill="#1D1D1B"/>
<path d="M45.9932 45.2432C45.8345 45.2442 45.6761 45.2307 45.5199 45.2027C45.2834 45.1647 45.0571 45.0786 44.8552 44.9498C44.6533 44.821 44.48 44.6522 44.346 44.4538C43.8221 43.6572 43.6556 42.0972 47.06 37.0805C48.9677 34.267 51.2473 31.4739 52.1042 30.4228L52.3286 30.1481C52.3286 29.8691 52.2649 29.1664 52.1954 28.4277C52.0868 27.2841 51.9233 25.5535 51.7916 23.3054C51.518 18.452 54.1957 15.3133 59.9999 13.6911C61.4097 13.2965 63.4607 12.7384 65.8359 12.0907C72.5331 10.2662 81.7054 7.76647 85.4224 6.53035C87.0146 6.00266 88.3939 6.17325 89.5287 7.03637C92.1341 9.01704 93.1979 14.6902 92.7058 23.8981C92.4279 29.1216 90.1468 33.1986 86.2822 35.3673C82.6303 37.4159 78.4661 37.2756 76.2443 36.0786L75.3455 35.5913C74.6217 35.1967 73.9255 34.8193 73.5203 34.6487C73.5203 34.9624 73.5767 35.4424 73.6259 35.9123L73.6708 36.359C73.6796 36.4481 73.6708 36.538 73.6449 36.6236C73.6189 36.7093 73.5763 36.789 73.5195 36.8582C73.4628 36.9274 73.3929 36.9847 73.3139 37.027C73.2349 37.0692 73.1484 37.0955 73.0593 37.1043C72.9701 37.1132 72.8801 37.1044 72.7943 37.0784C72.7086 37.0525 72.6288 37.01 72.5595 36.9533C72.4902 36.8965 72.4328 36.8267 72.3905 36.7479C72.3483 36.669 72.3219 36.5825 72.3131 36.4935L72.2682 36.0496C72.1119 34.5302 72.0352 33.7668 72.6475 33.3591C73.2973 32.9254 74.0326 33.3259 75.9968 34.3943L76.8913 34.8786C78.7411 35.8747 82.4262 35.9672 85.6149 34.1788C88.0495 32.8126 91.021 29.9096 91.3438 23.8331C91.9228 12.9582 90.2264 9.29029 88.7008 8.12791C87.9366 7.54961 87.0044 7.4484 85.8537 7.83876C82.1006 9.08499 72.908 11.5905 66.1949 13.4193C63.8225 14.067 61.773 14.6251 60.3675 15.0183C55.1366 16.4655 52.909 18.9999 53.1536 23.223C53.2824 25.448 53.4431 27.0947 53.5531 28.2961C53.7224 30.0917 53.7586 30.4647 53.5444 30.8001C53.5068 30.858 53.4662 30.9086 53.1623 31.2816C44.6312 41.7343 45.3737 43.5372 45.4909 43.7078C45.5141 43.7439 45.5691 43.8278 45.7804 43.8668C48.0037 44.2803 55.1988 39.1667 59.0663 36.4183L59.9796 35.7706C64.6736 32.4454 67.3861 29.0435 67.4136 29.0089C67.469 28.9386 67.5377 28.8799 67.6158 28.8362C67.6939 28.7925 67.7799 28.7646 67.8688 28.754C67.9577 28.7435 68.0478 28.7506 68.134 28.7748C68.2202 28.7991 68.3007 28.84 68.3711 28.8954C68.4414 28.9507 68.5001 29.0193 68.5439 29.0974C68.5877 29.1754 68.6156 29.2612 68.6262 29.35C68.6367 29.4388 68.6296 29.5289 68.6054 29.6149C68.5811 29.701 68.5401 29.7815 68.4847 29.8517C68.3703 29.9963 65.6333 33.4401 60.7685 36.8824L59.8566 37.5287C54.1234 41.5984 48.7476 45.2432 45.9932 45.2432Z" fill="#1D1D1B"/>
<path d="M36.1463 63.947C36.0754 63.947 34.6743 63.9672 34.0794 63.1272C33.2906 62.0082 33.732 60.5394 35.1578 59.5635C34.7279 61.1957 35.0174 62.935 36.1463 63.947Z" fill="white"/>
<path d="M83.2974 73.4557C82.4811 73.0625 80.5473 71.942 80.0494 69.9483C78.974 65.6949 80.8918 60.4064 87.3907 57.0508C87.8698 61.9186 85.9404 68.6688 83.2974 73.4557Z" fill="white"/>
<path d="M77.3559 80.3042C77.2123 80.3052 77.0697 80.2807 76.9347 80.2319C76.7477 80.1657 76.5859 80.0433 76.4713 79.8815C76.3568 79.7197 76.2952 79.5265 76.2949 79.3283C76.2848 78.6214 76.9738 77.8826 78.0521 77.4489C78.6577 77.2369 79.2874 77.1009 79.9265 77.044C80.0524 76.9096 80.1827 76.7679 80.3173 76.6103C83.9272 72.5203 87.4864 62.9335 86.6643 56.7009C86.4472 55.0585 85.8841 52.9058 85.0345 50.4842C85.0049 50.3997 84.9923 50.3102 84.9974 50.2209C85.0024 50.1315 85.0251 50.044 85.064 49.9634C85.1029 49.8828 85.1573 49.8106 85.2241 49.751C85.291 49.6914 85.3689 49.6455 85.4535 49.616C85.5381 49.5865 85.6277 49.5739 85.7171 49.579C85.8066 49.584 85.8942 49.6066 85.9749 49.6455C86.0556 49.6844 86.1278 49.7387 86.1875 49.8055C86.2472 49.8722 86.2931 49.9501 86.3227 50.0346C87.2027 52.5502 87.7889 54.7954 88.0176 56.5289C88.8542 62.8902 85.57 72.1574 81.9095 76.8301C85.6424 76.405 88.6125 75.6214 88.6386 72.1603C88.6472 71.2379 88.6385 70.3488 88.6313 69.4886C88.5951 65.5142 88.5705 62.6429 89.9948 61.2941C90.552 60.7678 91.2902 60.5293 92.1833 60.5856C92.4615 60.6038 92.7328 60.6797 92.98 60.8084C93.2272 60.9371 93.4449 61.1158 93.6191 61.3331C95.0419 63.0275 94.6092 67.291 94.5556 67.771C94.5461 67.86 94.5192 67.9462 94.4763 68.0247C94.4334 68.1033 94.3755 68.1726 94.3058 68.2288C94.2361 68.285 94.156 68.3269 94.0701 68.3522C93.9842 68.3774 93.8942 68.3856 93.8051 68.3761C93.7161 68.3666 93.6298 68.3396 93.5511 68.2968C93.4725 68.254 93.4031 68.1962 93.3468 68.1266C93.2906 68.0569 93.2486 67.977 93.2233 67.8911C93.198 67.8053 93.1899 67.7154 93.1994 67.6264C93.3774 66.0361 93.3644 63.1562 92.5741 62.215C92.5189 62.1389 92.4476 62.0759 92.3653 62.0305C92.283 61.985 92.1917 61.9582 92.0979 61.9519C91.4219 61.91 91.1078 62.1254 90.9327 62.2916C89.9398 63.2314 89.9644 66.1286 89.9948 69.4842C90.0035 70.3517 90.0107 71.2451 90.0035 72.1777C89.9615 77.3968 84.7363 77.9259 81.2784 78.2758C81.0367 78.299 80.7979 78.3235 80.5677 78.3481C79.294 79.6189 78.1722 80.3028 77.3559 80.3042Z" fill="#1D1D1B"/>
<path d="M68.5265 51.8689C68.3479 51.8689 68.1764 51.799 68.0489 51.6741C67.9215 51.5492 67.8481 51.3793 67.8447 51.201C67.7072 43.9202 68.2789 42.2503 69.4369 41.5853C69.5752 41.5038 69.731 41.4563 69.8913 41.4468C70.0516 41.4372 70.2118 41.4659 70.3589 41.5304C71.1347 41.8542 71.7658 43.2956 72.187 44.5765C72.8629 43.9086 73.8588 43.0224 74.8256 42.5149C75.9734 41.912 77.3384 41.9511 78.1865 42.0595C78.2922 41.0605 78.6208 39.5005 79.6441 38.9251C79.755 38.8635 79.8776 38.8257 80.004 38.8143C80.1304 38.8028 80.2578 38.8179 80.3779 38.8586C81.203 39.1232 82.413 40.9448 83.9733 44.2758C84.0501 44.4396 84.0586 44.627 83.997 44.797C83.9354 44.967 83.8087 45.1056 83.6448 45.1823C83.4809 45.259 83.2932 45.2675 83.123 45.206C82.9528 45.1444 82.814 45.0179 82.7372 44.8541C81.3781 41.9525 80.4995 40.7121 80.1116 40.3015C79.7266 40.8147 79.5109 42.0364 79.5008 42.8778C79.5 42.9818 79.4753 43.0841 79.4287 43.1771C79.3821 43.27 79.3147 43.351 79.2318 43.4139C79.1489 43.4767 79.0526 43.5197 78.9505 43.5396C78.8483 43.5594 78.7429 43.5556 78.6425 43.5284C78.6237 43.5284 76.7608 43.0412 75.4582 43.7236C74.0296 44.4725 72.3954 46.3259 72.3795 46.349C72.2981 46.4421 72.1929 46.5113 72.0752 46.5492C71.9574 46.5871 71.8316 46.5923 71.7111 46.5643C71.5906 46.5362 71.4801 46.4759 71.3913 46.3898C71.3025 46.3038 71.2388 46.1952 71.2071 46.0758C70.8438 44.7182 70.2967 43.3636 69.9464 42.9125C69.3486 43.6354 69.1127 46.2825 69.2053 51.1764C69.2072 51.2659 69.1914 51.3548 69.1588 51.4382C69.1262 51.5216 69.0774 51.5977 69.0153 51.6622C68.9532 51.7266 68.8789 51.7782 68.7967 51.814C68.7146 51.8497 68.6262 51.8688 68.5366 51.8703L68.5265 51.8689Z" fill="#1D1D1B"/>
<path d="M31.3177 78.2436C30.7938 78.2436 30.539 78.0657 30.3957 77.726C30.1482 77.1361 30.2307 76.2904 33.9187 72.4649C34.9739 71.3705 36.0566 70.3151 36.789 69.6124C35.4457 69.1793 34.1968 68.496 33.1082 67.5985C30.5723 65.4718 28.8701 61.4845 31.1267 57.7559C32.5741 55.3574 34.5194 53.9666 37.0611 53.5054C37.3661 53.4503 37.6807 53.4945 37.9586 53.6314C38.2366 53.7683 38.4632 53.9907 38.6051 54.2658C38.7471 54.541 38.7969 54.8544 38.7472 55.1599C38.6975 55.4655 38.5509 55.747 38.329 55.9631C37.7632 56.5166 37.2528 57.1238 36.8049 57.7761C35.5862 59.5457 35.4154 61.9919 36.4257 63.2324C37.3723 64.389 39.2858 64.4497 41.8115 63.3871C47.9848 60.7847 52.741 49.8939 56.2148 41.9379L56.6577 40.9259C56.6909 40.8399 56.7412 40.7615 56.8056 40.6955C56.8699 40.6294 56.947 40.5771 57.0321 40.5416C57.1173 40.5061 57.2088 40.4882 57.301 40.489C57.3933 40.4898 57.4845 40.5093 57.569 40.5462C57.6535 40.5832 57.7297 40.6368 57.7929 40.704C57.8561 40.7711 57.905 40.8504 57.9367 40.9369C57.9685 41.0235 57.9823 41.1155 57.9774 41.2076C57.9725 41.2996 57.949 41.3897 57.9083 41.4724L57.4654 42.4844C53.8989 50.65 49.0168 61.8343 42.3413 64.6434C38.1134 66.4217 36.1565 65.0612 35.3676 64.0926C33.9549 62.3577 34.0895 59.3115 35.6817 57.0084C36.179 56.28 36.7467 55.602 37.3766 54.9844C37.3906 54.9735 37.3998 54.9576 37.4023 54.94C37.4047 54.9225 37.4002 54.9047 37.3897 54.8904C37.384 54.873 37.3717 54.8585 37.3555 54.8502C37.3392 54.8418 37.3203 54.8401 37.3028 54.8456C35.1404 55.2374 33.5496 56.3867 32.2947 58.4599C30.4522 61.496 31.8793 64.788 33.9853 66.5561C35.2241 67.568 36.6896 68.2654 38.2567 68.5889C38.3826 68.6094 38.5002 68.6647 38.5962 68.7485C38.6923 68.8324 38.7629 68.9414 38.8001 69.0633C38.8373 69.1852 38.8396 69.315 38.8068 69.4381C38.7739 69.5613 38.7072 69.6727 38.6142 69.7599C35.8742 72.3102 32.8867 75.4099 31.9662 76.8007C33.8478 76.3959 38.7155 74.6321 42.4108 73.2904C51.8682 69.8611 52.8061 69.6761 53.3808 70.2226C53.9554 70.7691 53.7209 71.6611 53.4633 72.6991C53.2273 73.649 52.9335 74.8302 53.3185 75.446C53.4806 75.7048 53.7759 75.8798 54.2217 75.9737C55.5056 76.2499 57.3337 73.7198 58.7985 71.6857C60.6555 69.1064 62.2592 66.8785 64.0092 67.6809C65.7591 68.4833 65.5087 70.9064 65.2757 73.0403C65.1714 74.0075 65.0122 75.4692 65.2916 75.7872C65.3003 75.7959 65.3191 75.8176 65.4132 75.819C65.432 75.819 65.4928 75.7945 65.5854 75.7034C67.0328 74.2576 68.0981 66.066 67.9968 57.0532C67.9957 56.9637 68.0122 56.8748 68.0455 56.7917C68.0788 56.7085 68.1282 56.6327 68.1908 56.5687C68.2535 56.5046 68.3282 56.4535 68.4106 56.4183C68.4931 56.3832 68.5817 56.3646 68.6713 56.3636H68.6786C68.8581 56.3636 69.0304 56.4344 69.1581 56.5605C69.2857 56.6866 69.3584 56.858 69.3603 57.0373C69.45 65.0555 68.6091 74.6191 66.5465 76.6677C66.4001 76.8292 66.2214 76.9583 66.022 77.0464C65.8225 77.1346 65.6067 77.1799 65.3886 77.1795C65.1772 77.1828 64.9676 77.1406 64.7741 77.0558C64.5805 76.971 64.4075 76.8455 64.2668 76.6879C63.588 75.9202 63.74 74.5193 63.9165 72.8943C64.0902 71.304 64.3059 69.3175 63.4374 68.9199C62.7065 68.5845 61.0839 70.837 59.8985 72.4808C58.0255 75.0832 56.0903 77.7708 53.9279 77.3053C53.113 77.1303 52.5166 76.7472 52.1548 76.1675C51.4615 75.0557 51.832 73.5651 52.1302 72.3652C52.204 72.0659 52.3053 71.6611 52.3459 71.3777C50.9245 71.6452 46.4968 73.2572 42.8681 74.5584C40.0963 75.5704 37.2304 76.6041 35.0405 77.3053C33.1256 77.9472 31.9966 78.2436 31.3177 78.2436Z" fill="#1D1D1B"/>
<path d="M76.2688 50.7734C75.1427 50.7575 74.8344 51.2331 75.7753 51.6004C76.7161 51.9676 77.4644 50.7503 77.324 50.3671C77.1836 49.984 76.2688 50.7734 76.2688 50.7734Z" fill="#1D1D1B"/>
<path d="M78.5846 50.5911C79.9034 49.2413 81.345 48.0167 82.8907 46.9334C84.4409 45.865 86.0967 44.8689 87.9263 44.3672C84.5972 46.1267 81.7024 48.5078 78.589 50.594L78.5846 50.5911Z" fill="#1D1D1B"/>
<path d="M78.9 50.9961C80.4411 49.9087 82.0799 48.9664 83.7952 48.1812C85.5133 47.4135 87.324 46.7354 89.2143 46.5764C85.6233 47.7012 82.3405 49.5142 78.8957 50.9961H78.9Z" fill="#1D1D1B"/>
<path d="M75.5103 51.9934C71.8599 52.8609 68.1429 53.3567 64.5895 54.5958C66.2005 53.5982 68.0633 53.0633 69.8972 52.6556C71.7436 52.2611 73.6227 52.0395 75.5103 51.9934Z" fill="#1D1D1B"/>
<path d="M75.5956 52.5034C72.1638 54.0171 68.5973 55.1867 65.3319 57.0532C66.7359 55.778 68.4642 54.9135 70.1967 54.1776C71.9407 53.4548 73.7481 52.8953 75.5956 52.5063V52.5034Z" fill="#1D1D1B"/>
<path d="M5.26675 101.194V92.1044H9.4223C9.99018 92.0973 10.5557 92.1788 11.0984 92.3459C11.5497 92.4809 11.9688 92.7062 12.3302 93.008C12.6453 93.2802 12.8972 93.6176 13.0684 93.9969C13.2393 94.3841 13.3275 94.8026 13.3275 95.2258C13.3275 95.649 13.2393 96.0675 13.0684 96.4547C12.8963 96.8322 12.6445 97.1681 12.3302 97.4393C11.9692 97.7418 11.55 97.9671 11.0984 98.1014C10.5558 98.2692 9.99022 98.3507 9.4223 98.3428H7.08182V101.201L5.26675 101.194ZM7.08182 96.8465H9.4223C9.95107 96.87 10.47 96.6981 10.8799 96.3636C11.0537 96.2284 11.1943 96.0554 11.291 95.8577C11.3877 95.6601 11.438 95.4429 11.438 95.2229C11.438 95.0029 11.3877 94.7858 11.291 94.5881C11.1943 94.3904 11.0537 94.2174 10.8799 94.0822C10.4694 93.7488 9.95079 93.5775 9.4223 93.6008H7.08182V96.8465Z" fill="#010000"/>
<path d="M13.8529 92.1045H15.8706L18.3399 97.3656H18.4659L20.941 92.1045H22.9529L18.6613 101.194H16.6494L17.8073 98.7361H17.0402L13.8529 92.1045Z" fill="#010000"/>
<path d="M24.0067 101.194V92.1045H25.8276V95.8071H27.5153C27.9444 95.8284 28.3672 95.6978 28.7094 95.4384C29.0177 95.1805 29.2373 94.8327 29.3376 94.4437L29.9846 92.1045H31.8662L31.2192 94.4437C31.1244 94.7926 30.9959 95.1316 30.8357 95.4557C30.7185 95.7005 30.5727 95.9305 30.4015 96.141C30.2806 96.2821 30.149 96.4135 30.0078 96.5343C29.9171 96.615 29.8152 96.6822 29.7052 96.7338L29.5923 96.7844V96.848L32.5813 101.195H30.442L27.7802 97.302H25.8276V101.194H24.0067Z" fill="#010000"/>
<path d="M32.8158 101.194L36.5791 92.1045H38.8574L42.6207 101.194H40.6666L39.956 99.3752H35.4689L34.7583 101.194H32.8158ZM36.1348 97.8239H39.3191L37.7646 94.0649H37.6951L36.1348 97.8239Z" fill="#010000"/>
<path d="M47.5634 101.194V92.1045H55.8137V101.194H53.9986V93.6008H49.3842V101.194H47.5634Z" fill="#010000"/>
<path d="M58.018 99.1247C57.6122 98.3613 57.4001 97.5102 57.4001 96.646C57.4001 95.7817 57.6122 94.9306 58.018 94.1672C58.4232 93.4444 59.0256 92.8513 59.7549 92.4569C60.5342 92.0523 61.3995 91.8411 62.2778 91.8411C63.156 91.8411 64.0214 92.0523 64.8006 92.4569C65.53 92.8513 66.1323 93.4444 66.5375 94.1672C66.9433 94.9306 67.1555 95.7817 67.1555 96.646C67.1555 97.5102 66.9433 98.3613 66.5375 99.1247C66.1324 99.848 65.5301 100.442 64.8006 100.836C64.0211 101.24 63.1559 101.451 62.2778 101.451C61.3997 101.451 60.5345 101.24 59.7549 100.836C59.0255 100.442 58.4232 99.848 58.018 99.1247ZM60.1385 94.3046C59.5682 94.906 59.2835 95.6867 59.2845 96.6467C59.2855 97.6067 59.5701 98.3874 60.1385 98.9888C60.4156 99.2747 60.7473 99.5019 61.1141 99.6572C61.4808 99.8124 61.8751 99.8924 62.2734 99.8924C62.6718 99.8924 63.066 99.8124 63.4328 99.6572C63.7995 99.5019 64.1313 99.2747 64.4084 98.9888C64.9777 98.3854 65.2624 97.6047 65.2624 96.6467C65.2624 95.6886 64.9777 94.9079 64.4084 94.3046C64.1313 94.0187 63.7995 93.7914 63.4328 93.6362C63.066 93.481 62.6718 93.401 62.2734 93.401C61.8751 93.401 61.4808 93.481 61.1141 93.6362C60.7473 93.7914 60.4156 94.0187 60.1385 94.3046Z" fill="#010000"/>
<path d="M68.3788 101.194L69.4832 92.1045H71.4922L74.0976 97.753H74.1613L76.7666 92.1045H78.7742L79.8815 101.194H77.9998L77.2819 95.0264H77.2182L74.9458 99.8956H73.316L71.0377 95.0264H70.974L70.2634 101.194H68.3788Z" fill="#010000"/>
<path d="M81.7283 99.1247C81.3215 98.3617 81.1088 97.5104 81.1088 96.646C81.1088 95.7815 81.3215 94.9303 81.7283 94.1672C82.1333 93.4443 82.7357 92.8511 83.4652 92.4569C84.2444 92.0523 85.1098 91.8411 85.9881 91.8411C86.8663 91.8411 87.7317 92.0523 88.5109 92.4569C89.2403 92.8513 89.8426 93.4444 90.2478 94.1672C90.6536 94.9306 90.8658 95.7817 90.8658 96.646C90.8658 97.5102 90.6536 98.3613 90.2478 99.1247C89.8427 99.848 89.2404 100.442 88.5109 100.836C87.7314 101.24 86.8661 101.451 85.9881 101.451C85.11 101.451 84.2447 101.24 83.4652 100.836C82.7356 100.442 82.1333 99.8481 81.7283 99.1247ZM83.8473 94.3046C83.278 94.906 82.9933 95.6867 82.9933 96.6467C82.9933 97.6067 83.278 98.3874 83.8473 98.9888C84.1245 99.2747 84.4564 99.502 84.8233 99.6573C85.1902 99.8125 85.5845 99.8925 85.983 99.8925C86.3814 99.8925 86.7758 99.8125 87.1427 99.6573C87.5096 99.502 87.8415 99.2747 88.1187 98.9888C88.687 98.3854 88.9712 97.6047 88.9712 96.6467C88.9712 95.6886 88.687 94.9079 88.1187 94.3046C87.8415 94.0187 87.5096 93.7914 87.1427 93.6361C86.7758 93.4809 86.3814 93.4009 85.983 93.4009C85.5845 93.4009 85.1902 93.4809 84.8233 93.6361C84.4564 93.7914 84.1245 94.0187 83.8473 94.3046Z" fill="#010000"/>
<path d="M92.4364 101.194V92.1045H94.2573V99.7033H97.7673V92.1045H99.5823V99.7033H103.092V92.1045H104.913V99.7033H106.086V103.144H104.266V101.194H92.4364Z" fill="#010000"/>
<path d="M107.484 101.194V92.1045H109.305V98.3357H109.368L113.919 92.1045H115.733V101.194H113.919V94.9642H113.848L109.305 101.194H107.484Z" fill="#010000"/>
<path d="M4.8356 113.086V107.708H9.10839V108.593H5.92406V109.628H7.41201C7.72614 109.626 8.03856 109.675 8.33691 109.773C8.59081 109.852 8.82646 109.981 9.03023 110.152C9.20777 110.304 9.35212 110.491 9.45432 110.701C9.55249 110.907 9.60342 111.133 9.60342 111.361C9.60342 111.589 9.55249 111.815 9.45432 112.021C9.35187 112.231 9.20756 112.418 9.03023 112.57C8.82646 112.741 8.59081 112.87 8.33691 112.949C8.03856 113.047 7.72614 113.096 7.41201 113.094L4.8356 113.086ZM5.91393 112.202H7.41201C7.69514 112.218 7.97459 112.131 8.19941 111.959C8.28965 111.887 8.36249 111.795 8.41254 111.691C8.46259 111.587 8.48858 111.473 8.48858 111.357C8.48858 111.242 8.46259 111.128 8.41254 111.024C8.36249 110.92 8.28965 110.828 8.19941 110.756C7.97459 110.583 7.69514 110.497 7.41201 110.513H5.91393V112.202Z" fill="#010000"/>
<path d="M10.4704 113.086V107.708H14.7764V108.593H11.5487V109.978H13.7792V110.859H11.5487V112.202H14.8517V113.086H10.4704Z" fill="#010000"/>
<path d="M15.1977 112.508L15.6594 111.785C15.6739 111.799 15.697 111.821 15.7289 111.847C15.7607 111.873 15.8258 111.919 15.9286 111.991C16.0287 112.058 16.1337 112.116 16.2427 112.166C16.3763 112.224 16.5149 112.269 16.6567 112.302C16.8204 112.344 16.9886 112.365 17.1575 112.364C17.4953 112.384 17.8313 112.303 18.1229 112.132C18.2249 112.073 18.3099 111.989 18.3696 111.887C18.4292 111.786 18.4614 111.671 18.463 111.553C18.4621 111.437 18.4317 111.323 18.3748 111.222C18.3178 111.121 18.2361 111.036 18.1374 110.975C17.9188 110.822 17.5931 110.745 17.1575 110.745H16.5047V109.863H17.3109C17.5664 109.874 17.8181 109.798 18.0259 109.649C18.1115 109.601 18.1827 109.531 18.2322 109.447C18.2818 109.362 18.3079 109.266 18.3079 109.168C18.3079 109.07 18.2818 108.974 18.2322 108.889C18.1827 108.804 18.1115 108.734 18.0259 108.686C17.7897 108.535 17.5114 108.463 17.2313 108.48C17.0797 108.479 16.9284 108.493 16.7797 108.522C16.6479 108.547 16.5189 108.586 16.3947 108.637C16.289 108.682 16.192 108.727 16.1052 108.773C16.0369 108.809 15.9707 108.849 15.9069 108.892L15.8432 108.937L15.3815 108.214C15.4017 108.196 15.4307 108.172 15.4698 108.143C15.5509 108.086 15.635 108.033 15.7216 107.985C15.8508 107.91 15.9847 107.843 16.1226 107.786C16.2948 107.718 16.4725 107.666 16.6538 107.628C16.8672 107.581 17.0851 107.557 17.3037 107.557C17.6074 107.554 17.9097 107.598 18.1996 107.689C18.4427 107.762 18.6696 107.88 18.8683 108.037C19.0342 108.173 19.1719 108.34 19.2736 108.529C19.3673 108.703 19.417 108.897 19.4183 109.094C19.4191 109.223 19.3981 109.35 19.3561 109.471C19.3205 109.577 19.266 109.675 19.1954 109.761C19.1307 109.837 19.0579 109.905 18.9783 109.966C18.9056 110.025 18.8252 110.073 18.7395 110.11C18.6613 110.144 18.5948 110.171 18.5238 110.193C18.4714 110.211 18.4177 110.226 18.3632 110.236L18.3024 110.248V110.285C18.3268 110.288 18.351 110.292 18.3748 110.298C18.4037 110.304 18.463 110.322 18.5528 110.35C18.6384 110.378 18.722 110.412 18.8032 110.45C18.8961 110.496 18.9847 110.55 19.0681 110.611C19.1621 110.678 19.2472 110.756 19.3214 110.845C19.3994 110.942 19.4601 111.052 19.5008 111.17C19.5487 111.306 19.5727 111.45 19.5718 111.594C19.5715 111.808 19.5188 112.019 19.4183 112.208C19.3086 112.411 19.1584 112.59 18.9769 112.733C18.756 112.903 18.5044 113.029 18.2358 113.105C17.9072 113.203 17.5657 113.252 17.2226 113.249C16.9885 113.25 16.755 113.225 16.5264 113.174C16.3273 113.135 16.1331 113.074 15.9474 112.992C15.8051 112.928 15.6664 112.856 15.532 112.776C15.4374 112.723 15.3478 112.662 15.2642 112.593L15.1977 112.508Z" fill="#010000"/>
<path d="M19.8944 112.201H19.9639C20.0803 112.201 20.1953 112.175 20.3004 112.125C20.4055 112.075 20.4982 112.002 20.5718 111.912C20.7538 111.686 20.8638 111.411 20.8874 111.123L21.3115 107.702H25.1934V112.195H25.8839V114.231H24.8099V113.074H20.9771V114.231H19.9002L19.8944 112.201ZM21.5083 112.201H24.1209V108.587H22.3189L22.012 111.124C21.9984 111.303 21.9492 111.477 21.8673 111.637C21.8038 111.778 21.7215 111.909 21.6227 112.028L21.5054 112.159L21.5083 112.201Z" fill="#010000"/>
<path d="M26.7771 111.864C26.5368 111.412 26.411 110.909 26.411 110.398C26.411 109.886 26.5368 109.383 26.7771 108.932C27.0162 108.504 27.3715 108.153 27.8019 107.92C28.2628 107.68 28.7747 107.555 29.2942 107.555C29.8137 107.555 30.3256 107.68 30.7865 107.92C31.2176 108.153 31.5731 108.504 31.8113 108.932C32.0517 109.383 32.1774 109.886 32.1774 110.398C32.1774 110.909 32.0517 111.412 31.8113 111.864C31.5731 112.291 31.2176 112.642 30.7865 112.876C30.3256 113.115 29.8137 113.24 29.2942 113.24C28.7747 113.24 28.2628 113.115 27.8019 112.876C27.3715 112.642 27.0162 112.291 26.7771 111.864ZM28.0321 109.013C27.7057 109.4 27.5268 109.891 27.5268 110.398C27.5268 110.904 27.7057 111.395 28.0321 111.783C28.1959 111.952 28.3921 112.086 28.6091 112.178C28.8261 112.27 29.0593 112.317 29.2949 112.317C29.5306 112.317 29.7638 112.27 29.9808 112.178C30.1977 112.086 30.394 111.952 30.5578 111.783C30.8842 111.395 31.0631 110.904 31.0631 110.398C31.0631 109.891 30.8842 109.4 30.5578 109.013C30.394 108.843 30.1977 108.709 29.9808 108.617C29.7638 108.525 29.5306 108.478 29.2949 108.478C29.0593 108.478 28.8261 108.525 28.6091 108.617C28.3921 108.709 28.1959 108.843 28.0321 109.013Z" fill="#010000"/>
<path d="M32.9054 113.086L33.5597 107.708H34.7494L36.288 111.049H36.3199L37.8599 107.708H39.0468L39.7025 113.086H38.588L38.1639 109.437H38.1263L36.7816 112.317H35.8205L34.473 109.437H34.4382L34.0185 113.086H32.9054Z" fill="#010000"/>
<path d="M40.7448 113.086V107.708H41.8202V109.978H44.5877V107.708H45.6646V113.086H44.5877V110.859H41.8202V113.086H40.7448Z" fill="#010000"/>
<path d="M46.9093 113.086V107.708H47.9862V109.475H49.1442C49.8688 109.475 50.428 109.642 50.8217 109.975C51.007 110.139 51.1553 110.34 51.2569 110.565C51.3585 110.79 51.4111 111.034 51.4111 111.281C51.4111 111.528 51.3585 111.773 51.2569 111.998C51.1553 112.223 51.007 112.424 50.8217 112.588C50.429 112.92 49.8698 113.086 49.1442 113.086H46.9093ZM47.9862 112.202H49.1442C49.4472 112.218 49.7459 112.124 49.9851 111.937C50.0833 111.859 50.1623 111.759 50.2162 111.645C50.2701 111.532 50.2975 111.408 50.2963 111.282C50.2925 111.159 50.2618 111.039 50.2066 110.929C50.1513 110.82 50.0728 110.724 49.9764 110.647C49.7461 110.448 49.4484 110.345 49.1442 110.358H47.9862V112.202ZM52.2894 113.086V107.708H53.3663V113.086H52.2894Z" fill="#010000"/>
<path d="M54.4125 113.086L55.0667 107.708H56.2565L57.7951 111.049H57.8328L59.3728 107.708H60.5597L61.2154 113.086H60.1009L59.6768 109.437H59.6391L58.2945 112.317H57.3334L55.9859 109.437H55.9482L55.5285 113.086H54.4125Z" fill="#010000"/>
<path d="M63.9149 113.086L65.6837 110.513V110.477C65.6594 110.469 65.6357 110.459 65.6128 110.448C65.5517 110.414 65.494 110.374 65.4405 110.329C65.3524 110.26 65.2719 110.181 65.2003 110.095C65.1031 109.97 65.0197 109.835 64.9513 109.692C64.8555 109.5 64.7789 109.299 64.7226 109.092L64.339 107.708H65.455L65.8371 109.092C65.8965 109.322 66.0266 109.527 66.2091 109.679C66.4114 109.831 66.6609 109.908 66.914 109.896H67.7289V107.708H68.8072V109.899H69.6106C69.8641 109.911 70.1141 109.834 70.3169 109.682C70.4995 109.529 70.6291 109.322 70.6874 109.092L71.071 107.708H72.1855L71.8034 109.092C71.7469 109.298 71.6708 109.499 71.5762 109.69C71.5078 109.835 71.4222 109.971 71.3214 110.095C71.25 110.179 71.1721 110.257 71.0884 110.328C71.0351 110.376 70.9751 110.416 70.9103 110.447L70.8423 110.477V110.513L72.6096 113.086H71.3417L69.7553 110.783H68.8V113.086H67.7289V110.783H66.7678L65.1916 113.086H63.9149Z" fill="#010000"/>
<path d="M73.297 113.086V107.708H74.3739V111.395H74.4115L77.1038 107.708H78.1763V113.086H77.1038V109.4H77.0618L74.3739 113.086H73.297Z" fill="#010000"/>
<path d="M79.424 113.086V107.708H81.8064C82.4916 107.708 83.0015 107.841 83.3364 108.106C83.4995 108.23 83.6304 108.392 83.7183 108.577C83.8062 108.763 83.8484 108.966 83.8415 109.171C83.8423 109.281 83.8262 109.389 83.7937 109.494C83.7651 109.585 83.7226 109.67 83.6678 109.748C83.6174 109.817 83.5602 109.88 83.497 109.938C83.4392 109.99 83.3756 110.036 83.3074 110.073C83.2437 110.107 83.1858 110.136 83.1337 110.159C83.0941 110.179 83.0523 110.195 83.0092 110.207L82.96 110.221V110.257L83.031 110.272C83.0613 110.28 83.1207 110.298 83.209 110.327C83.2951 110.354 83.3793 110.387 83.4608 110.426C83.5537 110.472 83.6424 110.526 83.7257 110.587C83.8194 110.654 83.9045 110.732 83.979 110.82C84.0554 110.915 84.1156 111.021 84.157 111.136C84.2054 111.268 84.2294 111.407 84.228 111.547C84.2265 111.748 84.1769 111.946 84.0832 112.125C83.9866 112.314 83.8515 112.481 83.6866 112.615C83.4882 112.771 83.261 112.887 83.0179 112.956C82.7205 113.044 82.4117 113.086 82.1017 113.082L79.424 113.086ZM80.5009 109.899H81.8035C82.0454 109.914 82.2855 109.848 82.4853 109.711C82.5602 109.658 82.6214 109.589 82.6637 109.508C82.706 109.427 82.728 109.337 82.728 109.246C82.728 109.155 82.706 109.065 82.6637 108.984C82.6214 108.903 82.5602 108.833 82.4853 108.781C82.2852 108.644 82.0454 108.578 81.8035 108.593H80.5009V109.899ZM80.5009 112.202H82.1147C82.3782 112.22 82.6404 112.152 82.8616 112.008C82.9407 111.952 83.005 111.877 83.0489 111.79C83.0927 111.704 83.1149 111.608 83.1135 111.511C83.1171 111.409 83.0964 111.308 83.0531 111.215C83.0098 111.123 82.9452 111.042 82.8645 110.98C82.6431 110.834 82.3795 110.765 82.1147 110.783H80.5009V112.202Z" fill="#010000"/>
<path d="M85.1546 111.864C84.9142 111.412 84.7885 110.909 84.7885 110.398C84.7885 109.886 84.9142 109.383 85.1546 108.932C85.3928 108.504 85.7483 108.153 86.1794 107.92C86.6403 107.68 87.1522 107.555 87.6717 107.555C88.1912 107.555 88.703 107.68 89.1639 107.92C89.5944 108.153 89.9497 108.504 90.1887 108.932C90.4291 109.383 90.5548 109.886 90.5548 110.398C90.5548 110.909 90.4291 111.412 90.1887 111.864C89.9497 112.291 89.5944 112.642 89.1639 112.876C88.703 113.115 88.1912 113.24 87.6717 113.24C87.1522 113.24 86.6403 113.115 86.1794 112.876C85.7483 112.642 85.3928 112.291 85.1546 111.864ZM86.408 109.013C86.0817 109.4 85.9028 109.891 85.9028 110.398C85.9028 110.904 86.0817 111.395 86.408 111.783C86.572 111.952 86.7684 112.086 86.9855 112.178C87.2025 112.27 87.4359 112.317 87.6717 112.317C87.9074 112.317 88.1408 112.27 88.3578 112.178C88.5749 112.086 88.7713 111.952 88.9352 111.783C89.2616 111.395 89.4405 110.904 89.4405 110.398C89.4405 109.891 89.2616 109.4 88.9352 109.013C88.7713 108.843 88.5749 108.709 88.3578 108.617C88.1408 108.525 87.9074 108.478 87.6717 108.478C87.4359 108.478 87.2025 108.525 86.9855 108.617C86.7684 108.709 86.572 108.843 86.408 109.013Z" fill="#010000"/>
<path d="M90.8515 108.593V107.708H95.6193V108.593H93.7724V113.086H92.694V108.593H90.8515Z" fill="#010000"/>
<path d="M96.3776 113.086V107.708H97.4545V109.978H100.222V107.708H101.299V113.086H100.222V110.859H97.4545V113.086H96.3776Z" fill="#010000"/>
<path d="M102.542 113.086V107.708H103.625V109.475H104.783C105.509 109.475 106.069 109.642 106.46 109.975C106.647 110.138 106.796 110.339 106.899 110.564C107.001 110.789 107.054 111.034 107.054 111.281C107.054 111.529 107.001 111.773 106.899 111.999C106.796 112.224 106.647 112.425 106.46 112.588C106.068 112.92 105.508 113.086 104.783 113.086H102.542ZM103.619 112.202H104.777C105.08 112.218 105.379 112.124 105.618 111.937C105.716 111.859 105.796 111.759 105.849 111.646C105.903 111.532 105.931 111.408 105.929 111.282C105.926 111.16 105.895 111.039 105.84 110.93C105.785 110.82 105.707 110.724 105.611 110.647C105.38 110.448 105.082 110.345 104.777 110.358H103.619V112.202ZM107.921 113.086V107.708H108.999V113.086H107.921Z" fill="#010000"/>
<path d="M110.038 113.086L110.693 107.708H111.875L113.415 111.049H113.453L114.992 107.708H116.18L116.836 113.086H115.725L115.301 109.437H115.265L113.92 112.317H112.959L111.612 109.437H111.574L111.152 113.086H110.038Z" fill="#010000"/>
</svg>
