<svg width="120" height="120" viewBox="0 0 120 120" fill="none" xmlns="http://www.w3.org/2000/svg">
<path d="M90.6077 11.8383C90.502 12.4903 89.9679 13.9418 87.3307 14.8642C83.8656 16.0772 80.1747 12.7751 81.3963 7.99547C82.7583 7.59356 83.9264 7.23501 84.7963 6.94586C87.7635 5.96275 89.6669 7.76994 90.6077 11.8383Z" fill="white"/>
<path d="M37.8723 37.8209C36.0369 37.8209 35.7011 37.4046 35.5665 36.9275C35.3928 36.3304 35.1974 35.6538 43.4347 29.6293C47.3268 26.7841 51.3145 24.0647 51.3536 24.0372C51.4274 23.9863 51.5106 23.9504 51.5983 23.9317C51.686 23.9129 51.7766 23.9115 51.8648 23.9277C51.953 23.9439 52.0372 23.9773 52.1125 24.0259C52.1879 24.0746 52.2528 24.1376 52.3038 24.2114C52.3547 24.2852 52.3906 24.3682 52.4094 24.4558C52.4282 24.5434 52.4296 24.6339 52.4134 24.722C52.3972 24.8102 52.3638 24.8943 52.315 24.9695C52.2663 25.0447 52.2032 25.1096 52.1294 25.1605C45.5827 29.6221 38.6018 34.7762 37.1413 36.4374C38.6828 36.621 43.5273 35.9371 47.6814 35.0928C47.8588 35.0568 48.0432 35.0926 48.1941 35.1924C48.3451 35.2921 48.4501 35.4477 48.4862 35.6249C48.5223 35.802 48.4865 35.9862 48.3866 36.137C48.2867 36.2877 48.1309 36.3927 47.9536 36.4287C47.9261 36.4287 45.0978 37.007 42.2609 37.4104C40.2417 37.7038 38.8464 37.8209 37.8723 37.8209Z" fill="white"/>
<path d="M69.743 14.4755C72.6104 15.0538 75.7455 14.2673 76.7152 14.5535C77.685 14.8398 79.5218 18.9631 76.873 22.3881C74.2242 25.813 68.6024 25.2694 66.3285 21.1563C64.0546 17.0431 66.9712 13.9189 69.743 14.4755Z" fill="#FFC200"/>
<path d="M35.3132 63.9732H35.3103V63.4585L35.3132 63.9732Z" fill="white"/>
<path d="M34.3232 59.5894H34.3218V59.0747L34.3232 59.5894Z" fill="white"/>
<path d="M59.9368 56.2443C59.0278 63.2909 52.5462 64.4735 52.5462 64.4735C52.5462 64.4735 53.9213 67.6628 51.4288 67.91C48.9364 68.1573 49.7238 64.8581 49.7238 64.8581C49.7238 64.8581 45.9156 65.0663 44.0557 62.0114C48.5875 58.2091 52.2292 50.5437 55.0561 44.1304C55.0604 44.1333 60.8457 49.2021 59.9368 56.2443Z" fill="#FFC200"/>
<path d="M43.8876 62.2077L43.7964 62.0111H44.054L44.2234 61.8174L44.3131 62.014H43.7978H44.0555L43.8876 62.2077Z" fill="white"/>
<path d="M54.6726 66.665C55.1442 66.665 55.5266 66.2831 55.5266 65.812C55.5266 65.3409 55.1442 64.959 54.6726 64.959C54.2009 64.959 53.8186 65.3409 53.8186 65.812C53.8186 66.2831 54.2009 66.665 54.6726 66.665Z" fill="#FFC200"/>
<path d="M82.7395 73.6274C82.7322 73.6274 82.586 73.5695 82.3501 73.4568L82.573 72.9927C82.7843 73.0939 82.916 73.1373 82.9218 73.1459L82.7395 73.6274Z" fill="white"/>
<path d="M86.6779 57.0463L86.4319 56.5938L86.5766 56.5215L86.8082 56.9798C86.7619 57.0015 86.7228 57.0232 86.6779 57.0463Z" fill="white"/>
<path d="M80.1384 73.9332C80.5557 73.9332 80.8939 73.5953 80.8939 73.1785C80.8939 72.7617 80.5557 72.4238 80.1384 72.4238C79.7211 72.4238 79.3828 72.7617 79.3828 73.1785C79.3828 73.5953 79.7211 73.9332 80.1384 73.9332Z" fill="#FFC200"/>
<path d="M71.7043 50.7344C71.7071 50.6094 71.7348 50.4861 71.7856 50.3718C71.8364 50.2575 71.9094 50.1544 72.0005 50.0685C72.0915 49.9825 72.1986 49.9155 72.3158 49.8712C72.4329 49.827 72.5576 49.8064 72.6828 49.8106C72.7685 49.8109 72.8534 49.8282 72.9324 49.8614C73.0114 49.8947 73.083 49.9433 73.1431 50.0043C72.9853 50.0838 72.8695 50.1489 72.7581 50.2082C72.4231 50.4108 72.0727 50.5868 71.7101 50.7344H71.7043Z" fill="white"/>
<path d="M76.9728 48.9638C76.7658 48.5821 77.0451 48.0689 77.4577 47.9604C77.6442 47.9012 77.8437 47.8952 78.0335 47.9432C78.2233 47.9913 78.3958 48.0914 78.5316 48.2322C78.342 48.2901 78.1785 48.319 78.025 48.3522C77.5546 48.4289 77.2579 48.5518 76.9728 48.9638Z" fill="white"/>
<path d="M73.7609 52.6625C73.8003 52.8857 73.9193 53.0872 74.096 53.2296C74.2726 53.372 74.4949 53.4457 74.7218 53.4371C74.9486 53.4285 75.1646 53.3381 75.3299 53.1826C75.4952 53.0272 75.5985 52.8173 75.6208 52.5916C75.7482 52.0596 75.4876 51.2283 75.3965 50.6919C75.8813 51.2572 77.2998 53.1873 77.9106 51.8485C77.9967 51.5589 78.0199 51.2543 77.9787 50.955C78.122 51.2493 78.1797 51.578 78.1451 51.9034C78.1235 52.0909 78.0443 52.267 77.9183 52.4076C77.7923 52.5482 77.6258 52.6463 77.4417 52.6885C76.6731 52.7882 76.1303 52.2663 75.6483 51.7762L76.0927 51.5565C76.262 52.2923 76.1535 53.2538 75.4037 53.6615C74.7089 54.0388 73.619 53.4793 73.7609 52.6596V52.6625Z" fill="white"/>
<path d="M18.6694 79.3922C27.7781 77.0791 37.1964 76.1596 46.5569 75.6666C51.2538 75.441 55.942 75.3413 60.6461 75.4497C71.5886 75.7649 82.5137 77.2858 93.2391 79.3922C87.0224 78.7648 80.8116 78.1648 74.5963 77.734C70.3293 77.4174 66.0566 77.1991 61.7881 77.1282C58.2969 77.1152 54.7884 77.186 51.2986 77.293C40.4039 77.6039 29.5063 78.1691 18.6694 79.3922Z" fill="white"/>
<path d="M60.9587 35.0353C60.5042 35.3871 60.0271 35.7399 59.5272 36.0936C54.6871 39.5186 45.6175 46.182 44.0789 43.8486C43.442 42.88 44.6941 40.4063 46.3875 37.8256C52.9979 34.1014 57.8367 33.1125 59.6937 33.4016C60.6693 33.5549 60.9066 34.5264 60.9587 35.0353Z" fill="white"/>
<path d="M73.3427 16.8989C72.5177 17.7057 71.6058 18.3447 71.3858 19.5258C71.296 19.8887 71.241 20.2878 71.1412 20.7085C70.141 18.9302 71.3684 17.0146 73.3427 16.8989Z" fill="white"/>
<path d="M45.1574 45.0122C44.9987 45.0132 44.8402 44.9997 44.6841 44.9717C44.4475 44.9337 44.2213 44.8477 44.0194 44.7188C43.8175 44.59 43.6442 44.4212 43.5102 44.2228C42.9862 43.4262 42.8198 41.8663 46.2241 36.8495C48.1318 34.0361 50.4115 31.2429 51.2684 30.1918L51.4927 29.9171C51.4927 29.6381 51.429 28.9355 51.3596 28.1967C51.251 27.0531 51.0874 25.3226 50.9557 23.0744C50.6822 18.221 53.3599 15.0823 59.1641 13.4602C60.5738 13.0655 62.6248 12.5074 65.0001 11.8597C71.6973 10.0352 80.8696 7.53551 84.5865 6.2994C86.1787 5.7717 87.5581 5.9423 88.6929 6.80541C91.2982 8.78608 92.3621 14.4592 91.87 23.6672C91.5921 28.8907 89.3109 32.9677 85.4463 35.1363C81.7945 37.1849 77.6302 37.0447 75.4085 35.8476L74.5096 35.3604C73.7859 34.9657 73.0897 34.5884 72.6844 34.4178C72.6844 34.7315 72.7409 35.2115 72.7901 35.6813L72.8349 36.1281C72.8438 36.2171 72.835 36.307 72.809 36.3927C72.7831 36.4783 72.7405 36.558 72.6837 36.6272C72.6269 36.6964 72.557 36.7538 72.4781 36.796C72.3991 36.8383 72.3126 36.8645 72.2234 36.8734C72.1343 36.8822 72.0442 36.8734 71.9585 36.8475C71.8728 36.8216 71.793 36.779 71.7237 36.7223C71.6544 36.6656 71.597 36.5958 71.5547 36.5169C71.5124 36.438 71.4861 36.3516 71.4773 36.2625L71.4324 35.8187C71.2761 34.2992 71.1994 33.5359 71.8116 33.1282C72.4615 32.6944 73.1968 33.0949 75.1609 34.1633L76.0555 34.6476C77.9053 35.6438 81.5904 35.7363 84.7791 33.9479C87.2136 32.5817 90.1852 29.6786 90.5079 23.6021C91.0869 12.7272 89.3905 9.05933 87.865 7.89695C87.1007 7.31865 86.1686 7.21745 85.0179 7.6078C81.2647 8.85403 72.0721 11.3595 65.359 13.1884C62.9867 13.8361 60.9371 14.3941 59.5317 14.7874C54.3007 16.2346 52.0731 18.769 52.3177 22.992C52.4466 25.217 52.6072 26.8637 52.7172 28.0651C52.8866 29.8608 52.9228 30.2338 52.7086 30.5692C52.6709 30.627 52.6304 30.6776 52.3264 31.0506C43.7953 41.5034 44.5379 43.3062 44.6551 43.4768C44.6783 43.513 44.7333 43.5968 44.9446 43.6359C47.1678 44.0493 54.363 38.9357 58.2305 36.1874L59.1438 35.5397C63.8378 32.2144 66.5502 28.8126 66.5777 28.7779C66.6331 28.7076 66.7019 28.649 66.78 28.6053C66.8581 28.5615 66.944 28.5336 67.0329 28.5231C67.1219 28.5125 67.212 28.5196 67.2981 28.5438C67.3843 28.5681 67.4649 28.6091 67.5352 28.6644C67.6055 28.7197 67.6643 28.7884 67.708 28.8664C67.7518 28.9444 67.7798 29.0303 67.7903 29.1191C67.8009 29.2079 67.7938 29.2979 67.7695 29.384C67.7452 29.4701 67.7042 29.5505 67.6488 29.6208C67.5345 29.7653 64.7974 33.2091 59.9326 36.6514L59.0208 37.2977C53.2875 41.3675 47.9118 45.0122 45.1574 45.0122Z" fill="white"/>
<path d="M35.3105 63.716C35.2396 63.716 33.8385 63.7363 33.2436 62.8963C32.4547 61.7773 32.8962 60.3084 34.3219 59.3325C33.892 60.9648 34.1815 62.704 35.3105 63.716Z" fill="#FFC200"/>
<path d="M82.4616 73.2247C81.6452 72.8315 79.7115 71.711 79.2136 69.7174C78.1381 65.464 80.056 60.1754 86.5549 56.8198C87.034 61.6877 85.1046 68.4379 82.4616 73.2247Z" fill="#FFC200"/>
<path d="M76.5201 80.073C76.3765 80.074 76.2339 80.0495 76.0989 80.0007C75.9119 79.9345 75.75 79.8121 75.6355 79.6503C75.5209 79.4885 75.4593 79.2953 75.4591 79.0971C75.449 78.3902 76.1379 77.6514 77.2163 77.2177C77.8219 77.0057 78.4515 76.8697 79.0907 76.8128C79.2166 76.6784 79.3469 76.5367 79.4815 76.3791C83.0913 72.2891 86.6506 62.7023 85.8284 56.4697C85.6113 54.8273 85.0483 52.6746 84.1986 50.253C84.1691 50.1685 84.1565 50.079 84.1615 49.9897C84.1666 49.9003 84.1892 49.8128 84.2281 49.7322C84.267 49.6516 84.3215 49.5794 84.3883 49.5198C84.4551 49.4602 84.5331 49.4143 84.6177 49.3848C84.7022 49.3553 84.7918 49.3427 84.8813 49.3478C84.9707 49.3528 85.0583 49.3754 85.139 49.4143C85.2197 49.4532 85.292 49.5075 85.3517 49.5743C85.4113 49.641 85.4573 49.7189 85.4868 49.8034C86.3669 52.319 86.9531 54.5642 87.1818 56.2977C88.0184 62.659 84.7342 71.9262 81.0736 76.5989C84.8065 76.1738 87.7767 75.3902 87.8027 71.9291C87.8114 71.0067 87.8027 70.1176 87.7955 69.2574C87.7593 65.283 87.7347 62.4117 89.1589 61.0629C89.7162 60.5366 90.4544 60.2981 91.3474 60.3544C91.6256 60.3726 91.8969 60.4485 92.1441 60.5772C92.3914 60.7059 92.609 60.8846 92.7833 61.1019C94.2061 62.7963 93.7733 67.0598 93.7198 67.5398C93.7103 67.6288 93.6833 67.715 93.6404 67.7935C93.5976 67.8721 93.5397 67.9414 93.47 67.9976C93.4003 68.0538 93.3202 68.0957 93.2343 68.121C93.1484 68.1462 93.0583 68.1544 92.9693 68.1449C92.8802 68.1354 92.7939 68.1084 92.7153 68.0656C92.6366 68.0228 92.5672 67.965 92.511 67.8954C92.4547 67.8257 92.4127 67.7458 92.3874 67.6599C92.3621 67.5741 92.354 67.4842 92.3635 67.3952C92.5416 65.8049 92.5285 62.925 91.7382 61.9838C91.683 61.9077 91.6118 61.8447 91.5295 61.7993C91.4472 61.7538 91.3559 61.727 91.262 61.7207C90.5861 61.6788 90.272 61.8942 90.0969 62.0604C89.1039 63.0002 89.1285 65.8974 89.1589 69.253C89.1676 70.1205 89.1749 71.0139 89.1676 71.9465C89.1256 77.1656 83.9005 77.6947 80.4426 78.0446C80.2008 78.0677 79.962 78.0923 79.7319 78.1169C78.4582 79.3877 77.3364 80.0716 76.5201 80.073Z" fill="white"/>
<path d="M67.6906 51.6379C67.512 51.638 67.3406 51.568 67.2131 51.4431C67.0856 51.3182 67.0123 51.1483 67.0089 50.97C66.8714 43.6892 67.4431 42.0194 68.601 41.3543C68.7394 41.2729 68.8951 41.2254 69.0554 41.2158C69.2157 41.2063 69.376 41.2349 69.523 41.2994C70.2989 41.6232 70.9299 43.0647 71.3511 44.3456C72.0271 43.6777 73.0229 42.7914 73.9898 42.284C75.1376 41.6811 76.5025 41.7201 77.3507 41.8285C77.4564 40.8295 77.7849 39.2696 78.8083 38.6942C78.9191 38.6325 79.0417 38.5948 79.1681 38.5833C79.2945 38.5719 79.4219 38.587 79.5421 38.6277C80.3671 38.8922 81.5772 40.7139 83.1375 44.0449C83.2143 44.2086 83.2228 44.3961 83.1612 44.5661C83.0995 44.7361 82.9728 44.8747 82.8089 44.9514C82.645 45.028 82.4573 45.0366 82.2871 44.975C82.1169 44.9135 81.9782 44.7869 81.9014 44.6232C80.5423 41.7216 79.6637 40.4811 79.2758 40.0705C78.8908 40.5838 78.6751 41.8054 78.665 42.6468C78.6642 42.7508 78.6395 42.8532 78.5928 42.9461C78.5462 43.039 78.4788 43.1201 78.3959 43.1829C78.313 43.2457 78.2168 43.2887 78.1146 43.3086C78.0125 43.3285 77.9071 43.3246 77.8066 43.2974C77.7878 43.2974 75.925 42.8102 74.6223 43.4926C73.1937 44.2415 71.5596 46.0949 71.5436 46.1181C71.4623 46.2112 71.3571 46.2804 71.2393 46.3183C71.1216 46.3562 70.9957 46.3614 70.8753 46.3333C70.7548 46.3052 70.6442 46.2449 70.5554 46.1589C70.4666 46.0728 70.403 45.9643 70.3712 45.8448C70.0079 44.4873 69.4608 43.1326 69.1105 42.6815C68.5128 43.4044 68.2768 46.0516 68.3695 50.9454C68.3714 51.0349 68.3556 51.1239 68.323 51.2072C68.2904 51.2906 68.2416 51.3667 68.1795 51.4312C68.1173 51.4957 68.0431 51.5473 67.9609 51.583C67.8787 51.6187 67.7903 51.6379 67.7007 51.6394L67.6906 51.6379Z" fill="white"/>
<path d="M30.4819 78.0129C29.9579 78.0129 29.7032 77.835 29.5599 77.4953C29.3124 76.9054 29.3949 76.0596 33.0829 72.2342C34.1381 71.1398 35.2207 70.0844 35.9531 69.3817C34.6099 68.9486 33.3609 68.2652 32.2723 67.3678C29.7365 65.2411 28.0343 61.2537 30.2908 57.5252C31.7382 55.1267 33.6836 53.7358 36.2252 53.2747C36.5302 53.2196 36.8448 53.2638 37.1228 53.4007C37.4007 53.5376 37.6273 53.76 37.7693 54.0351C37.9113 54.3103 37.961 54.6237 37.9113 54.9292C37.8616 55.2348 37.7151 55.5163 37.4932 55.7324C36.9274 56.2859 36.4169 56.8931 35.9691 57.5454C34.7503 59.315 34.5795 61.7612 35.5898 63.0016C36.5364 64.1582 38.4499 64.219 40.9757 63.1563C47.1489 60.554 51.9052 49.6632 55.379 41.7072L55.8219 40.6952C55.8551 40.6092 55.9054 40.5308 55.9697 40.4648C56.0341 40.3987 56.1111 40.3464 56.1963 40.3109C56.2815 40.2754 56.3729 40.2575 56.4652 40.2583C56.5575 40.2591 56.6486 40.2786 56.7331 40.3155C56.8177 40.3525 56.8938 40.4061 56.9571 40.4733C57.0203 40.5404 57.0692 40.6196 57.1009 40.7062C57.1326 40.7928 57.1464 40.8848 57.1415 40.9769C57.1367 41.0689 57.1131 41.159 57.0724 41.2417L56.6295 42.2537C53.0631 50.4193 48.1809 61.6036 41.5054 64.4127C37.2775 66.191 35.3206 64.8305 34.5318 63.8619C33.1191 62.127 33.2537 59.0808 34.8459 56.7777C35.3432 56.0493 35.9109 55.3713 36.5408 54.7537C36.5548 54.7428 36.564 54.7269 36.5664 54.7093C36.5689 54.6918 36.5643 54.674 36.5538 54.6597C36.5482 54.6423 36.5359 54.6278 36.5196 54.6194C36.5034 54.611 36.4844 54.6094 36.467 54.6149C34.3045 55.0067 32.7138 56.156 31.4589 58.2292C29.6163 61.2653 31.0435 64.5573 33.1495 66.3254C34.3882 67.3373 35.8537 68.0347 37.4208 68.3581C37.5467 68.3787 37.6643 68.434 37.7604 68.5178C37.8564 68.6017 37.9271 68.7107 37.9643 68.8326C38.0015 68.9545 38.0038 69.0843 37.9709 69.2074C37.9381 69.3305 37.8713 69.442 37.7783 69.5292C35.0384 72.0795 32.0509 75.1792 31.1303 76.57C33.012 76.1652 37.8796 74.4014 41.5749 73.0597C51.0324 69.6304 51.9703 69.4454 52.5449 69.9918C53.1195 70.5383 52.8851 71.4304 52.6274 72.4684C52.3915 73.4183 52.0977 74.5994 52.4827 75.2153C52.6448 75.4741 52.9401 75.6491 53.3859 75.743C54.6697 76.0192 56.4978 73.4891 57.9626 71.4549C59.8196 68.8757 61.4234 66.6478 63.1733 67.4502C64.9233 68.2526 64.6729 70.6757 64.4398 72.8096C64.3356 73.7768 64.1764 75.2385 64.4557 75.5565C64.4644 75.5652 64.4832 75.5869 64.5773 75.5883C64.5961 75.5883 64.6569 75.5638 64.7496 75.4727C66.197 74.0269 67.2623 65.8353 67.161 56.8225C67.1598 56.733 67.1764 56.6441 67.2097 56.5609C67.243 56.4778 67.2923 56.402 67.355 56.338C67.4177 56.2739 67.4923 56.2228 67.5748 56.1876C67.6572 56.1524 67.7458 56.1338 67.8355 56.1329H67.8427C68.0223 56.1329 68.1946 56.2036 68.3222 56.3298C68.4499 56.4559 68.5225 56.6273 68.5244 56.8066C68.6142 64.8247 67.7732 74.3884 65.7107 76.437C65.5643 76.5985 65.3856 76.7276 65.1861 76.8157C64.9866 76.9039 64.7708 76.9492 64.5527 76.9488C64.3414 76.9521 64.1318 76.9099 63.9382 76.8251C63.7447 76.7403 63.5716 76.6148 63.431 76.4572C62.7521 75.6895 62.9041 74.2886 63.0807 72.6636C63.2544 71.0733 63.47 69.0868 62.6016 68.6892C61.8706 68.3538 60.2481 70.6063 59.0626 72.2501C57.1897 74.8525 55.2545 77.5401 53.092 77.0746C52.2771 76.8996 51.6808 76.5165 51.3189 75.9368C50.6256 74.825 50.9962 73.3344 51.2943 72.1344C51.3682 71.8352 51.4695 71.4304 51.51 71.147C50.0886 71.4145 45.661 73.0265 42.0323 74.3276C39.2605 75.3397 36.3946 76.3734 34.2046 77.0746C32.2897 77.7165 31.1607 78.0129 30.4819 78.0129Z" fill="white"/>
<path d="M75.433 50.5424C74.3069 50.5265 73.9986 51.0022 74.9394 51.3694C75.8802 51.7366 76.6286 50.5193 76.4882 50.1362C76.3478 49.753 75.433 50.5424 75.433 50.5424Z" fill="white"/>
<path d="M77.7488 50.3602C79.0676 49.0103 80.5091 47.7858 82.0549 46.7024C83.605 45.634 85.2609 44.6379 87.0904 44.1362C83.7614 45.8957 80.8665 48.2769 77.7531 50.3631L77.7488 50.3602Z" fill="white"/>
<path d="M78.0642 50.7649C79.6053 49.6775 81.244 48.7352 82.9593 47.95C84.6774 47.1823 86.4881 46.5042 88.3785 46.3452C84.7874 47.47 81.5047 49.283 78.0598 50.7649H78.0642Z" fill="white"/>
<path d="M74.6745 51.7627C71.0241 52.6301 67.3071 53.126 63.7537 54.365C65.3646 53.3675 67.2275 52.8325 69.0614 52.4248C70.9077 52.0304 72.7869 51.8087 74.6745 51.7627Z" fill="white"/>
<path d="M74.7598 52.2725C71.3279 53.7862 67.7615 54.9558 64.4961 56.8222C65.9001 55.5471 67.6283 54.6825 69.3609 53.9466C71.1048 53.2239 72.9122 52.6644 74.7598 52.2754V52.2725Z" fill="white"/>
<path d="M4.43091 100.963V91.8735H8.58645C9.15433 91.8663 9.71985 91.9478 10.2626 92.1149C10.7139 92.2499 11.1329 92.4752 11.4943 92.7771C11.8094 93.0492 12.0613 93.3867 12.2325 93.766C12.4034 94.1532 12.4917 94.5717 12.4917 94.9949C12.4917 95.418 12.4034 95.8365 12.2325 96.2237C12.0605 96.6013 11.8086 96.9372 11.4943 97.2083C11.1334 97.5108 10.7142 97.7361 10.2626 97.8704C9.72 98.0383 9.15438 98.1197 8.58645 98.1119H6.24597V100.97L4.43091 100.963ZM6.24597 96.6155H8.58645C9.11522 96.6391 9.63413 96.4672 10.044 96.1327C10.2178 95.9975 10.3584 95.8245 10.4551 95.6268C10.5519 95.4291 10.6021 95.212 10.6021 94.992C10.6021 94.7719 10.5519 94.5548 10.4551 94.3571C10.3584 94.1595 10.2178 93.9864 10.044 93.8513C9.63359 93.5179 9.11494 93.3466 8.58645 93.3698H6.24597V96.6155Z" fill="white"/>
<path d="M13.0171 91.8735H15.0348L17.5041 97.1346H17.63L20.1051 91.8735H22.117L17.8254 100.963H15.8135L16.9714 98.5052H16.2043L13.0171 91.8735Z" fill="white"/>
<path d="M23.1709 100.963V91.8735H24.9918V95.5761H26.6794C27.1085 95.5974 27.5314 95.4669 27.8736 95.2074C28.1818 94.9495 28.4015 94.6017 28.5018 94.2128L29.1487 91.8735H31.0304L30.3834 94.2128C30.2886 94.5617 30.1601 94.9006 29.9998 95.2248C29.8826 95.4695 29.7369 95.6995 29.5656 95.9101C29.4447 96.0511 29.3131 96.1826 29.1719 96.3033C29.0812 96.3841 28.9793 96.4513 28.8694 96.5028L28.7565 96.5534V96.617L31.7454 100.964H29.6061L26.9443 97.071H24.9918V100.963H23.1709Z" fill="white"/>
<path d="M31.98 100.963L35.7433 91.8735H38.0215L41.7848 100.963H39.8308L39.1201 99.1442H34.6331L33.9224 100.963H31.98ZM35.2989 97.5929H38.4832L36.9287 93.834H36.8592L35.2989 97.5929Z" fill="white"/>
<path d="M46.7275 100.963V91.8735H54.9778V100.963H53.1628V93.3699H48.5484V100.963H46.7275Z" fill="white"/>
<path d="M57.1822 98.894C56.7764 98.1306 56.5642 97.2795 56.5642 96.4152C56.5642 95.551 56.7764 94.6999 57.1822 93.9365C57.5874 93.2137 58.1897 92.6206 58.9191 92.2262C59.6983 91.8216 60.5637 91.6104 61.4419 91.6104C62.3202 91.6104 63.1855 91.8216 63.9648 92.2262C64.6942 92.6206 65.2965 93.2137 65.7017 93.9365C66.1075 94.6999 66.3197 95.551 66.3197 96.4152C66.3197 97.2795 66.1075 98.1306 65.7017 98.894C65.2966 99.6172 64.6943 100.211 63.9648 100.606C63.1852 101.009 62.32 101.22 61.4419 101.22C60.5639 101.22 59.6986 101.009 58.9191 100.606C58.1896 100.211 57.5873 99.6172 57.1822 98.894ZM59.3026 94.0739C58.7324 94.6753 58.4477 95.456 58.4487 96.416C58.4496 97.376 58.7343 98.1567 59.3026 98.7581C59.5797 99.0439 59.9115 99.2712 60.2782 99.4265C60.645 99.5817 61.0393 99.6617 61.4376 99.6617C61.8359 99.6617 62.2302 99.5817 62.5969 99.4265C62.9637 99.2712 63.2955 99.0439 63.5725 98.7581C64.1419 98.1547 64.4265 97.374 64.4265 96.416C64.4265 95.4579 64.1419 94.6772 63.5725 94.0739C63.2955 93.788 62.9637 93.5607 62.5969 93.4055C62.2302 93.2503 61.8359 93.1703 61.4376 93.1703C61.0393 93.1703 60.645 93.2503 60.2782 93.4055C59.9115 93.5607 59.5797 93.788 59.3026 94.0739Z" fill="white"/>
<path d="M67.543 100.963L68.6474 91.8735H70.6564L73.2617 97.5221H73.3254L75.9308 91.8735H77.9383L79.0456 100.963H77.164L76.4461 94.7954H76.3824L74.1099 99.6647H72.4801L70.2019 94.7954H70.1382L69.4275 100.963H67.543Z" fill="white"/>
<path d="M80.8924 98.894C80.4857 98.1309 80.2729 97.2797 80.2729 96.4152C80.2729 95.5508 80.4857 94.6996 80.8924 93.9365C81.2975 93.2136 81.8998 92.6204 82.6293 92.2262C83.4086 91.8216 84.274 91.6104 85.1522 91.6104C86.0305 91.6104 86.8958 91.8216 87.6751 92.2262C88.4044 92.6206 89.0067 93.2137 89.412 93.9365C89.8177 94.6999 90.0299 95.551 90.0299 96.4152C90.0299 97.2795 89.8177 98.1306 89.412 98.894C89.0068 99.6172 88.4045 100.211 87.6751 100.606C86.8955 101.009 86.0303 101.22 85.1522 101.22C84.2741 101.22 83.4089 101.009 82.6293 100.606C81.8998 100.211 81.2975 99.6173 80.8924 98.894ZM83.0115 94.0739C82.4421 94.6753 82.1575 95.456 82.1575 96.416C82.1575 97.376 82.4421 98.1567 83.0115 98.7581C83.2887 99.044 83.6206 99.2713 83.9874 99.4266C84.3543 99.5818 84.7487 99.6618 85.1471 99.6618C85.5456 99.6618 85.94 99.5818 86.3068 99.4266C86.6737 99.2713 87.0056 99.044 87.2828 98.7581C87.8512 98.1547 88.1353 97.374 88.1353 96.416C88.1353 95.4579 87.8512 94.6772 87.2828 94.0739C87.0056 93.788 86.6737 93.5606 86.3068 93.4054C85.94 93.2502 85.5456 93.1702 85.1471 93.1702C84.7487 93.1702 84.3543 93.2502 83.9874 93.4054C83.6206 93.5606 83.2887 93.788 83.0115 94.0739Z" fill="white"/>
<path d="M91.6006 100.963V91.8735H93.4214V99.4724H96.9314V91.8735H98.7465V99.4724H102.256V91.8735H104.077V99.4724H105.25V102.913H103.43V100.963H91.6006Z" fill="white"/>
<path d="M106.648 100.963V91.8735H108.469V98.1047H108.532L113.083 91.8735H114.897V100.963H113.083V94.7332H113.012L108.469 100.963H106.648Z" fill="white"/>
<path d="M3.99976 112.855V107.477H8.27254V108.362H5.08822V109.397H6.57616C6.89029 109.395 7.20271 109.443 7.50107 109.542C7.75497 109.621 7.99062 109.75 8.19438 109.92C8.37192 110.073 8.51627 110.26 8.61848 110.47C8.71664 110.676 8.76758 110.901 8.76758 111.13C8.76758 111.358 8.71664 111.584 8.61848 111.79C8.51603 112 8.37172 112.187 8.19438 112.339C7.99062 112.51 7.75497 112.639 7.50107 112.718C7.20271 112.816 6.89029 112.865 6.57616 112.862L3.99976 112.855ZM5.07808 111.97H6.57616C6.8593 111.986 7.13874 111.9 7.36356 111.728C7.4538 111.655 7.52664 111.564 7.57669 111.46C7.62675 111.356 7.65273 111.242 7.65273 111.126C7.65273 111.011 7.62675 110.897 7.57669 110.793C7.52664 110.688 7.4538 110.597 7.36356 110.525C7.13874 110.352 6.8593 110.266 6.57616 110.282H5.07808V111.97Z" fill="white"/>
<path d="M9.63452 112.855V107.477H13.9406V108.362H10.7128V109.747H12.9433V110.627H10.7128V111.97H14.0159V112.855H9.63452Z" fill="white"/>
<path d="M14.3618 112.277L14.8235 111.554C14.838 111.568 14.8612 111.59 14.893 111.616C14.9249 111.642 14.99 111.688 15.0928 111.76C15.1929 111.827 15.2979 111.885 15.4069 111.935C15.5405 111.993 15.679 112.038 15.8208 112.071C15.9845 112.113 16.1528 112.134 16.3216 112.133C16.6594 112.153 16.9954 112.072 17.2871 111.901C17.3891 111.842 17.4741 111.758 17.5337 111.657C17.5934 111.555 17.6256 111.44 17.6272 111.322C17.6262 111.206 17.5959 111.092 17.5389 110.991C17.482 110.89 17.4003 110.805 17.3015 110.744C17.083 110.591 16.7573 110.514 16.3216 110.514H15.6688V109.632H16.475C16.7306 109.643 16.9823 109.567 17.1901 109.418C17.2756 109.37 17.3468 109.3 17.3964 109.216C17.4459 109.131 17.4721 109.035 17.4721 108.937C17.4721 108.839 17.4459 108.743 17.3964 108.658C17.3468 108.573 17.2756 108.504 17.1901 108.455C16.9539 108.304 16.6756 108.232 16.3954 108.249C16.2439 108.248 16.0926 108.262 15.9438 108.291C15.812 108.316 15.683 108.355 15.5588 108.406C15.4532 108.451 15.3562 108.496 15.2693 108.542C15.2011 108.578 15.1349 108.618 15.0711 108.661L15.0074 108.706L14.5456 107.983C14.5659 107.965 14.5948 107.941 14.6339 107.912C14.7151 107.855 14.7992 107.802 14.8858 107.754C15.015 107.679 15.1489 107.613 15.2867 107.555C15.459 107.487 15.6367 107.435 15.8179 107.397C16.0313 107.35 16.2492 107.326 16.4678 107.326C16.7715 107.323 17.0739 107.367 17.3638 107.458C17.6068 107.531 17.8338 107.649 18.0325 107.806C18.1984 107.942 18.3361 108.109 18.4378 108.298C18.5315 108.472 18.5812 108.666 18.5825 108.863C18.5833 108.992 18.5622 109.119 18.5203 109.241C18.4846 109.346 18.4302 109.444 18.3596 109.53C18.2948 109.606 18.222 109.675 18.1425 109.735C18.0697 109.794 17.9894 109.842 17.9037 109.88C17.8255 109.913 17.7589 109.94 17.688 109.962C17.6356 109.98 17.5819 109.995 17.5273 110.005L17.4665 110.017V110.054C17.4909 110.057 17.5151 110.061 17.5389 110.067C17.5679 110.073 17.6272 110.091 17.7169 110.12C17.8025 110.147 17.8862 110.181 17.9673 110.219C18.0602 110.265 18.1488 110.319 18.2322 110.38C18.3263 110.447 18.4114 110.525 18.4855 110.614C18.5636 110.711 18.6243 110.821 18.665 110.939C18.7129 111.075 18.7369 111.219 18.7359 111.363C18.7356 111.577 18.683 111.788 18.5825 111.977C18.4728 112.181 18.3225 112.359 18.141 112.502C17.9202 112.672 17.6686 112.799 17.4 112.874C17.0713 112.972 16.7298 113.021 16.3868 113.018C16.1526 113.019 15.9191 112.994 15.6905 112.943C15.4914 112.904 15.2972 112.843 15.1116 112.761C14.9692 112.697 14.8305 112.625 14.6962 112.545C14.6016 112.492 14.512 112.431 14.4284 112.362L14.3618 112.277Z" fill="white"/>
<path d="M19.0586 111.97H19.1281C19.2445 111.97 19.3594 111.944 19.4645 111.894C19.5697 111.844 19.6624 111.771 19.736 111.681C19.918 111.456 20.0279 111.181 20.0515 110.892L20.4756 107.471H24.3576V111.965H25.048V114H23.974V112.844H20.1413V114H19.0644L19.0586 111.97ZM20.6725 111.97H23.2851V108.356H21.483L21.1762 110.893C21.1626 111.072 21.1134 111.247 21.0314 111.407C20.968 111.547 20.8857 111.678 20.7868 111.797L20.6696 111.928L20.6725 111.97Z" fill="white"/>
<path d="M25.9413 111.633C25.7009 111.181 25.5752 110.678 25.5752 110.167C25.5752 109.655 25.7009 109.152 25.9413 108.701C26.1803 108.273 26.5356 107.922 26.9661 107.689C27.427 107.449 27.9389 107.324 28.4584 107.324C28.9779 107.324 29.4897 107.449 29.9507 107.689C30.3817 107.922 30.7372 108.273 30.9754 108.701C31.2158 109.152 31.3415 109.655 31.3415 110.167C31.3415 110.678 31.2158 111.181 30.9754 111.633C30.7372 112.06 30.3817 112.412 29.9507 112.645C29.4897 112.884 28.9779 113.009 28.4584 113.009C27.9389 113.009 27.427 112.884 26.9661 112.645C26.5356 112.411 26.1803 112.06 25.9413 111.633ZM27.1962 108.782C26.8698 109.169 26.6909 109.66 26.6909 110.167C26.6909 110.673 26.8698 111.164 27.1962 111.552C27.3601 111.721 27.5563 111.855 27.7733 111.947C27.9902 112.039 28.2234 112.086 28.4591 112.086C28.6947 112.086 28.928 112.039 29.1449 111.947C29.3619 111.855 29.5581 111.721 29.722 111.552C30.0483 111.164 30.2273 110.673 30.2273 110.167C30.2273 109.66 30.0483 109.169 29.722 108.782C29.5581 108.612 29.3619 108.478 29.1449 108.386C28.928 108.294 28.6947 108.247 28.4591 108.247C28.2234 108.247 27.9902 108.294 27.7733 108.386C27.5563 108.478 27.3601 108.612 27.1962 108.782Z" fill="white"/>
<path d="M32.0696 112.855L32.7238 107.477H33.9136L35.4522 110.818H35.484L37.0241 107.477H38.211L38.8667 112.855H37.7522L37.3281 109.206H37.2904L35.9458 112.086H34.9847L33.6371 109.206H33.6024L33.1826 112.855H32.0696Z" fill="white"/>
<path d="M39.9089 112.855V107.477H40.9844V109.747H43.7518V107.477H44.8287V112.855H43.7518V110.627H40.9844V112.855H39.9089Z" fill="white"/>
<path d="M46.0735 112.855V107.477H47.1504V109.244H48.3083C49.033 109.244 49.5922 109.41 49.9859 109.744C50.1711 109.908 50.3195 110.109 50.4211 110.334C50.5227 110.559 50.5752 110.803 50.5752 111.05C50.5752 111.297 50.5227 111.541 50.4211 111.767C50.3195 111.992 50.1711 112.193 49.9859 112.356C49.5931 112.689 49.0339 112.855 48.3083 112.855H46.0735ZM47.1504 111.97H48.3083C48.6114 111.986 48.91 111.892 49.1493 111.706C49.2474 111.627 49.3265 111.528 49.3804 111.414C49.4343 111.301 49.4617 111.177 49.4605 111.051C49.4566 110.928 49.426 110.808 49.3707 110.698C49.3155 110.589 49.2369 110.492 49.1406 110.416C48.9103 110.217 48.6125 110.114 48.3083 110.127H47.1504V111.97ZM51.4535 112.855V107.477H52.5304V112.855H51.4535Z" fill="white"/>
<path d="M53.5767 112.855L54.2309 107.477H55.4207L56.9593 110.818H56.9969L58.537 107.477H59.7239L60.3795 112.855H59.265L58.8409 109.206H58.8033L57.4586 112.086H56.4976L55.15 109.206H55.1124L54.6926 112.855H53.5767Z" fill="white"/>
<path d="M63.0791 112.855L64.8479 110.282V110.246C64.8235 110.238 64.7998 110.228 64.7769 110.217C64.7158 110.183 64.6581 110.143 64.6047 110.098C64.5166 110.029 64.436 109.95 64.3644 109.864C64.2673 109.739 64.1838 109.604 64.1155 109.461C64.0197 109.269 63.9431 109.068 63.8868 108.861L63.5032 107.477H64.6192L65.0013 108.861C65.0606 109.09 65.1907 109.296 65.3733 109.448C65.5756 109.6 65.825 109.677 66.0782 109.664H66.8931V107.477H67.9714V109.667H68.7747C69.0283 109.68 69.2782 109.603 69.481 109.451C69.6636 109.298 69.7933 109.091 69.8516 108.861L70.2352 107.477H71.3497L70.9676 108.861C70.9111 109.067 70.835 109.267 70.7403 109.459C70.6719 109.604 70.5864 109.74 70.4856 109.864C70.4142 109.948 70.3363 110.025 70.2525 110.097C70.1992 110.145 70.1392 110.185 70.0745 110.215L70.0065 110.246V110.282L71.7738 112.855H70.5058L68.9194 110.552H67.9641V112.855H66.8931V110.552H65.932L64.3557 112.855H63.0791Z" fill="white"/>
<path d="M72.4612 112.855V107.477H73.5381V111.164H73.5757L76.2679 107.477H77.3404V112.855H76.2679V109.169H76.2259L73.5381 112.855H72.4612Z" fill="white"/>
<path d="M78.5881 112.855V107.477H80.9706C81.6557 107.477 82.1657 107.61 82.5005 107.875C82.6636 107.999 82.7946 108.161 82.8825 108.346C82.9703 108.532 83.0126 108.735 83.0057 108.94C83.0065 109.049 82.9904 109.158 82.9579 109.263C82.9292 109.353 82.8868 109.439 82.832 109.517C82.7816 109.586 82.7244 109.649 82.6612 109.706C82.6033 109.759 82.5397 109.804 82.4716 109.842C82.4079 109.876 82.35 109.904 82.2979 109.928C82.2582 109.948 82.2165 109.964 82.1734 109.975L82.1242 109.99V110.026L82.1951 110.04C82.2255 110.049 82.2849 110.066 82.3731 110.095C82.4593 110.123 82.5434 110.156 82.625 110.195C82.7179 110.241 82.8065 110.294 82.8899 110.356C82.9836 110.422 83.0686 110.501 83.1432 110.588C83.2196 110.683 83.2798 110.79 83.3212 110.905C83.3695 111.036 83.3936 111.175 83.3921 111.316C83.3906 111.517 83.341 111.715 83.2474 111.894C83.1507 112.083 83.0156 112.25 82.8508 112.384C82.6523 112.54 82.4251 112.656 82.1821 112.725C81.8846 112.812 81.5758 112.855 81.2659 112.851L78.5881 112.855ZM79.665 109.667H80.9677C81.2096 109.683 81.4497 109.617 81.6494 109.479C81.7244 109.427 81.7856 109.358 81.8279 109.277C81.8701 109.196 81.8922 109.106 81.8922 109.015C81.8922 108.923 81.8701 108.833 81.8279 108.752C81.7856 108.672 81.7244 108.602 81.6494 108.55C81.4494 108.413 81.2095 108.347 80.9677 108.362H79.665V109.667ZM79.665 111.97H81.2789C81.5423 111.989 81.8046 111.921 82.0258 111.777C82.1049 111.72 82.1691 111.646 82.213 111.559C82.2569 111.472 82.279 111.376 82.2776 111.279C82.2813 111.178 82.2606 111.076 82.2173 110.984C82.174 110.892 82.1093 110.811 82.0287 110.749C81.8073 110.602 81.5437 110.533 81.2789 110.552H79.665V111.97Z" fill="white"/>
<path d="M84.3187 111.633C84.0784 111.181 83.9526 110.678 83.9526 110.167C83.9526 109.655 84.0784 109.152 84.3187 108.701C84.5569 108.273 84.9124 107.922 85.3435 107.689C85.8044 107.449 86.3163 107.324 86.8358 107.324C87.3553 107.324 87.8672 107.449 88.3281 107.689C88.7585 107.922 89.1138 108.273 89.3529 108.701C89.5933 109.152 89.719 109.655 89.719 110.167C89.719 110.678 89.5933 111.181 89.3529 111.633C89.1138 112.06 88.7585 112.411 88.3281 112.645C87.8672 112.884 87.3553 113.009 86.8358 113.009C86.3163 113.009 85.8044 112.884 85.3435 112.645C84.9124 112.412 84.5569 112.06 84.3187 111.633ZM85.5722 108.782C85.2458 109.169 85.0669 109.66 85.0669 110.167C85.0669 110.673 85.2458 111.164 85.5722 111.552C85.7362 111.721 85.9325 111.855 86.1496 111.947C86.3667 112.039 86.6 112.086 86.8358 112.086C87.0716 112.086 87.3049 112.039 87.522 111.947C87.7391 111.855 87.9354 111.721 88.0994 111.552C88.4258 111.164 88.6047 110.673 88.6047 110.167C88.6047 109.66 88.4258 109.169 88.0994 108.782C87.9354 108.612 87.7391 108.478 87.522 108.386C87.3049 108.294 87.0716 108.247 86.8358 108.247C86.6 108.247 86.3667 108.294 86.1496 108.386C85.9325 108.478 85.7362 108.612 85.5722 108.782Z" fill="white"/>
<path d="M90.0156 108.362V107.477H94.7834V108.362H92.9365V112.855H91.8582V108.362H90.0156Z" fill="white"/>
<path d="M95.5417 112.855V107.477H96.6186V109.747H99.3861V107.477H100.463V112.855H99.3861V110.627H96.6186V112.855H95.5417Z" fill="white"/>
<path d="M101.706 112.855V107.477H102.789V109.244H103.947C104.674 109.244 105.233 109.41 105.624 109.744C105.811 109.907 105.96 110.108 106.063 110.333C106.165 110.558 106.218 110.803 106.218 111.05C106.218 111.298 106.165 111.542 106.063 111.768C105.96 111.993 105.811 112.194 105.624 112.356C105.232 112.689 104.673 112.855 103.947 112.855H101.706ZM102.783 111.97H103.941C104.244 111.987 104.543 111.893 104.782 111.706C104.88 111.628 104.96 111.528 105.014 111.414C105.068 111.301 105.095 111.177 105.093 111.051C105.09 110.928 105.059 110.808 105.004 110.698C104.949 110.589 104.871 110.492 104.775 110.416C104.544 110.217 104.246 110.114 103.941 110.127H102.783V111.97ZM107.085 112.855V107.477H108.163V112.855H107.085Z" fill="white"/>
<path d="M109.203 112.855L109.857 107.477H111.039L112.579 110.818H112.617L114.156 107.477H115.344L116 112.855H114.89L114.465 109.206H114.429L113.085 112.086H112.124L110.776 109.206H110.738L110.316 112.855H109.203Z" fill="white"/>
</svg>
