<svg width="96" height="40" viewBox="0 0 96 40" fill="none" xmlns="http://www.w3.org/2000/svg">
<path d="M33.725 29.8693L33.245 31.3493C32.5516 31.4026 32.0316 31.4293 31.685 31.4293C30.085 31.4293 28.7783 30.7493 27.765 29.3893C26.7783 28.0559 26.285 26.3093 26.285 24.1493C26.285 22.8426 26.5783 20.3759 27.165 16.7493C27.7783 13.0959 28.485 9.7626 29.285 6.74927C29.445 6.0826 29.525 5.6426 29.525 5.42927C29.525 5.21593 29.4316 5.10927 29.245 5.10927C29.0583 5.10927 28.4583 6.10927 27.445 8.10927C26.4583 10.0826 25.2716 12.5226 23.885 15.4293C22.4983 18.3093 21.6983 19.9626 21.485 20.3893C21.2983 20.7893 21.1383 21.1226 21.005 21.3893C20.8983 21.6293 20.6583 22.0826 20.285 22.7493C19.9383 23.3893 19.605 23.9626 19.285 24.4693C18.405 25.8026 17.7116 26.4693 17.205 26.4693C16.8583 26.4693 16.4716 26.3759 16.045 26.1893C15.645 26.0026 15.3783 25.8026 15.245 25.5893C14.9516 25.1359 14.805 23.7226 14.805 21.3493C14.805 16.3893 15.205 11.6559 16.005 7.14927C16.2716 5.65593 16.405 4.86927 16.405 4.78927C16.405 4.5226 16.2983 4.38927 16.085 4.38927C15.6583 4.38927 14.9783 5.7226 14.045 8.38927L12.885 11.7093C11.1783 16.5359 9.44496 20.2959 7.68496 22.9893C5.95163 25.6826 3.95163 27.5759 1.68496 28.6693L0.644958 26.4693C3.23163 24.5493 5.21829 22.5893 6.60496 20.5893C8.01829 18.5893 9.55163 15.3626 11.205 10.9093L12.565 7.26927C13.4983 4.73593 14.3116 2.93593 15.005 1.86927C15.6983 0.775934 16.4716 0.229267 17.325 0.229267C18.7383 0.229267 19.445 1.0826 19.445 2.78927C19.445 2.9226 19.1916 5.62927 18.685 10.9093C18.1783 16.1626 17.925 19.6293 17.925 21.3093C17.925 21.7893 18.005 22.0426 18.165 22.0693C18.2983 22.0693 18.445 21.9359 18.605 21.6693C20.765 18.0693 22.8316 14.1493 24.805 9.90927C25.045 9.37593 25.4583 8.45593 26.045 7.14927C26.6316 5.8426 27.205 4.6826 27.765 3.66927C28.325 2.65593 28.7516 2.0426 29.045 1.82927C29.3383 1.58927 29.805 1.46927 30.445 1.46927C31.085 1.46927 31.6316 1.70927 32.085 2.18927C32.565 2.6426 32.805 3.18927 32.805 3.82927C32.805 4.46927 32.7116 5.2026 32.525 6.02927C30.445 16.1893 29.405 22.2693 29.405 24.2693C29.405 26.2426 29.725 27.5893 30.365 28.3093C31.005 29.0559 32.125 29.5759 33.725 29.8693ZM53.3975 21.0693L54.2375 21.7493C53.7841 22.8693 53.0641 23.8159 52.0775 24.5893C51.1175 25.3626 50.2375 25.7493 49.4375 25.7493C48.6641 25.7493 48.0508 25.4826 47.5975 24.9493C47.1441 24.3893 46.9175 23.6693 46.9175 22.7893C46.9175 21.9093 47.0641 20.7759 47.3575 19.3893C46.1041 21.3626 44.7575 22.9093 43.3175 24.0293C41.8775 25.1493 40.6641 25.7093 39.6775 25.7093C38.1841 25.7093 37.4375 24.8159 37.4375 23.0293C37.4375 21.2426 38.0508 18.8426 39.2775 15.8293C40.5308 12.7893 41.4241 11.0559 41.9575 10.6293L43.8775 11.4693C42.7841 13.2293 41.9575 14.9626 41.3975 16.6693C40.8375 18.3759 40.5575 19.5226 40.5575 20.1093C40.5575 20.6693 40.7308 21.1226 41.0775 21.4693C41.4508 21.8159 41.8775 21.9893 42.3575 21.9893C43.4241 21.9893 44.7441 21.0159 46.3175 19.0693C47.9175 17.0959 49.5441 14.1626 51.1975 10.2693L53.2375 11.1893C53.1841 11.4026 52.5708 12.9493 51.3975 15.8293C50.2508 18.7093 49.6775 20.4426 49.6775 21.0293C49.6775 21.5893 49.7975 22.0159 50.0375 22.3093C50.3041 22.6026 50.5575 22.7493 50.7975 22.7493C51.0641 22.7493 51.2641 22.7359 51.3975 22.7093C51.5308 22.6826 51.6641 22.6293 51.7975 22.5493C51.9308 22.4693 52.0375 22.4026 52.1175 22.3493C52.2241 22.2959 52.3441 22.2026 52.4775 22.0693L52.7575 21.7493C52.8375 21.6959 52.9441 21.5893 53.0775 21.4293C53.2375 21.2426 53.3441 21.1226 53.3975 21.0693ZM62.7175 18.3893C64.7441 15.3493 66.5041 13.2826 67.9975 12.1893C69.4908 11.0693 70.7975 10.5093 71.9175 10.5093C73.0375 10.5093 73.9041 10.8559 74.5175 11.5493C75.1308 12.2159 75.4375 13.0693 75.4375 14.1093C75.4375 16.9893 74.3975 19.6559 72.3175 22.1093C70.2641 24.5359 67.9441 25.7493 65.3575 25.7493C64.2108 25.7493 63.3041 25.5493 62.6375 25.1493L63.5975 23.4293C65.0108 23.6159 65.8775 23.7093 66.1975 23.7093C67.6375 23.7093 68.9841 22.8693 70.2375 21.1893C71.4908 19.5093 72.1175 17.7893 72.1175 16.0293C72.1175 15.3626 71.9175 14.8159 71.5175 14.3893C71.1441 13.9359 70.6508 13.7093 70.0375 13.7093C68.5708 13.7093 66.9041 15.0026 65.0375 17.5893C63.1975 20.1759 61.4641 23.3759 59.8375 27.1893C58.2375 31.0293 56.8375 35.1093 55.6375 39.4293L53.2375 38.5893C53.2908 38.4293 53.7975 37.0426 54.7575 34.4293C55.6908 31.8426 56.6108 29.2693 57.5175 26.7093C60.0241 19.6693 61.2775 15.8159 61.2775 15.1493C61.2775 13.4426 60.9308 11.8959 60.2375 10.5093L62.2375 9.50927C63.0641 10.6559 63.4775 11.8693 63.4775 13.1493C63.4775 14.4026 63.2241 16.1493 62.7175 18.3893ZM94.5034 21.7093L95.4234 22.3893C95.0501 23.1893 94.3567 23.9493 93.3434 24.6693C92.3567 25.3893 91.4501 25.7493 90.6234 25.7493C89.0501 25.7493 88.2634 24.9226 88.2634 23.2693C88.2634 22.4959 88.4634 21.5759 88.8634 20.5093L87.3834 22.0293C85.9434 23.4959 84.6901 24.4826 83.6234 24.9893C82.5834 25.4959 81.5567 25.7493 80.5434 25.7493C79.5301 25.7493 78.7567 25.4693 78.2234 24.9093C77.7167 24.3226 77.4634 23.5226 77.4634 22.5093C77.4634 20.6426 78.1834 18.8026 79.6234 16.9893C81.0634 15.1493 82.9034 13.6559 85.1434 12.5093C87.3834 11.3626 89.6234 10.7759 91.8634 10.7493L91.9434 12.0693L90.2634 12.4293C87.8367 12.9626 85.6901 14.0293 83.8234 15.6293C81.9834 17.2293 81.0634 18.8293 81.0634 20.4293C81.0634 22.0026 81.7034 22.7893 82.9834 22.7893C84.1834 22.7893 85.6634 21.9493 87.4234 20.2693C89.1834 18.5893 90.6501 16.6159 91.8234 14.3493L93.5034 15.3493C91.8501 18.6826 91.0234 20.8026 91.0234 21.7093C91.0234 22.0826 91.1434 22.4026 91.3834 22.6693C91.6501 22.9093 91.9034 23.0293 92.1434 23.0293C92.4101 23.0293 92.5834 23.0159 92.6634 22.9893C92.7434 22.9626 92.8234 22.9359 92.9034 22.9093C92.9834 22.8559 93.0767 22.7893 93.1834 22.7093C93.3167 22.6293 93.4234 22.5493 93.5034 22.4693C93.6101 22.3893 93.7701 22.2693 93.9834 22.1093C94.1967 21.9493 94.3701 21.8159 94.5034 21.7093Z" fill="#57358A"/>
</svg>
