<svg width="1920" height="896" viewBox="0 0 1920 896" fill="none" xmlns="http://www.w3.org/2000/svg">
<path fill-rule="evenodd" clip-rule="evenodd" d="M925.928 895.171H-0.00295516V0.170898H1100.48C1090.38 12.5338 1081.69 26.1919 1074.7 40.9378L1001.69 194.8C983.645 232.818 978.056 275.558 985.714 316.937L1002.93 409.967C1009.26 444.177 1006.56 479.447 995.09 512.294L983.064 546.736C970.98 581.343 969.231 618.72 978.032 654.304C986.887 690.108 985.061 727.722 972.779 762.5L925.928 895.171Z" fill="#5A3788"/>
<path fill-rule="evenodd" clip-rule="evenodd" d="M1099.69 0.170898C1089.59 12.5339 1080.9 26.1922 1073.91 40.9383L1000.9 194.801C982.856 232.819 977.267 275.559 984.925 316.937L1002.14 409.967C1008.47 444.178 1005.77 479.448 994.302 512.294L982.275 546.736C970.191 581.344 968.443 618.72 977.243 654.304C986.099 690.108 984.273 727.722 971.991 762.501L925.139 895.171H1920V0.170898H1099.69Z" fill="#FBC009"/>
</svg>
