<svg width="85" height="80" viewBox="0 0 85 80" fill="none" xmlns="http://www.w3.org/2000/svg">
<g clip-path="url(#clip0_810_2417)">
<path d="M68.8444 74.3C66.7543 67.9733 64.4101 61.6819 62.32 55.3554C61.9299 54.1629 59.8989 54.0126 59.6679 55.2433C59.0093 57.5399 58.4921 59.769 57.8336 62.0656C56.5166 59.8509 56.6383 57.7244 56.9872 55.2311C57.0481 54.1679 56.9121 52.9401 55.7581 52.2851C53.9847 51.2363 51.3559 52.3196 49.6327 52.798C45.2538 54.0278 41.0986 55.7542 36.4961 56.4877C31.1599 57.2268 31.9061 54.1989 33.8656 51.1947C35.8823 47.9908 38.6883 45.0132 41.6051 42.4997C46.7588 38.1421 52.5337 33.7465 55.352 27.7467C56.9178 24.4135 56.406 18.5394 51.3882 17.3167C45.2433 15.7708 37.1081 17.7606 32.0171 20.6233C29.1897 21.9738 12.0429 33.2664 13.2652 24.3235C14.1671 17.7742 22.2341 11.7665 27.2178 7.57633C27.8692 7.00667 26.9422 5.98444 26.2067 6.42192C20.4359 9.95399 15.1945 15.0429 11.8696 20.6813C10.1356 23.7501 9.62913 30.1967 15.4127 30.4503C22.1554 30.7628 28.1305 25.6682 33.3916 22.6382C36.6449 20.6533 41.1633 19.7877 45.0035 19.1599C53.1922 17.8338 55.0299 23.7639 51.5655 29.0381C47.278 35.4812 39.8677 39.6237 34.6799 45.3765C32.8653 47.4497 26.5163 54.274 30.3403 57.532C34.7549 61.2833 43.1512 57.5311 47.4746 56.0694C47.2204 56.1046 54.4267 53.5243 54.5072 54.5201C54.5877 55.5158 54.2728 56.614 54.2121 57.6772C54.1189 59.7037 54.5914 61.4603 55.7134 63.0786C53.6001 62.3645 51.4294 61.8502 49.2015 61.5355C48.0169 61.412 47.4747 62.8774 48.2334 63.6353C53.7432 68.6732 60.7293 71.5409 67.0049 75.6098C67.9049 76.3001 69.2631 75.3928 68.8444 74.3ZM58.129 65.7164C58.8054 65.9103 59.1741 65.4757 59.1759 65.044C59.5713 64.9413 59.8827 64.7064 59.9972 64.307C60.3695 63.0089 60.7703 61.6109 61.1425 60.3129C62.481 64.1547 63.8481 67.8968 65.1866 71.7386C61.2176 69.4118 57.0499 67.3523 53.4211 64.6906C54.9151 65.0109 56.5221 65.3637 58.129 65.7164Z" fill="#FBC009"/>
</g>
<defs>
<clipPath id="clip0_810_2417">
<rect width="70" height="62" fill="white" transform="translate(17.4705 0.332031) rotate(16)"/>
</clipPath>
</defs>
</svg>
