<svg width="53" height="53" viewBox="0 0 53 53" fill="none" xmlns="http://www.w3.org/2000/svg">
<g clip-path="url(#clip0_810_2414)">
<path d="M11.6662 52.0482C15.1825 48.9784 18.5983 45.7731 22.1144 42.7033C22.7783 42.1269 22.2589 40.917 21.3809 41.1483C19.6731 41.4494 18.0528 41.8117 16.345 42.1128C17.3978 40.7022 18.8305 40.1434 20.5731 39.6065C21.2894 39.327 22.0539 38.886 22.1325 38.0301C22.2812 36.7024 20.7702 35.5143 19.9318 34.6669C17.792 32.5178 15.3944 30.6438 13.5124 28.2196C11.4033 25.3761 13.6177 24.9091 16.1857 25.1453C18.9022 25.3553 21.7104 26.0851 24.2478 27.0157C28.6762 28.6847 33.3185 30.6989 38.114 30.5422C40.7782 30.4552 44.4777 28.4248 43.7531 25.1839C42.8977 21.2008 39.116 17.121 35.6878 15.0459C33.941 13.8228 21.3112 7.32224 27.5526 5.37958C32.1255 3.96079 38.5235 6.81364 42.7903 8.43457C43.3624 8.63992 43.7512 7.80579 43.2402 7.51309C39.1659 5.24591 34.2308 3.74281 29.5184 3.50195C26.9765 3.41424 22.5913 5.0296 24.185 8.42334C26.0319 12.3849 31.194 14.3073 34.7837 16.4304C37.0765 17.7104 39.0197 20.0472 40.6004 22.0652C43.9628 26.372 40.63 29.1798 36.1141 28.7512C30.5806 28.1959 25.6066 25.1684 20.2521 23.8924C18.3392 23.4641 11.9281 21.8385 10.9536 24.996C9.83504 28.6384 14.8529 32.347 17.1279 34.3957C17.0275 34.2603 20.9141 37.6325 20.285 37.9731C19.656 38.3137 18.8394 38.4577 18.1231 38.7372C16.7647 39.2829 15.7556 40.0734 15.035 41.1957C14.8605 39.7719 14.5375 38.3742 14.066 37.0028C13.7866 36.2865 12.6597 36.4086 12.3932 37.0681C10.7635 41.7192 11.0074 46.5758 10.2468 51.38C10.0676 52.1004 11.0764 52.6116 11.6662 52.0482ZM14.0389 43.3617C14.1174 43.8072 14.5148 43.8902 14.7987 43.7636C14.9865 43.9602 15.2354 44.0694 15.5324 44.017C16.4977 43.8468 17.5372 43.6635 18.5024 43.4933C16.3883 45.3973 14.3483 47.2881 12.2342 49.192C12.5534 46.2266 12.6368 43.2261 13.2794 40.3569C13.5238 41.3089 13.7813 42.3353 14.0389 43.3617Z" fill="#FBC009"/>
</g>
<defs>
<clipPath id="clip0_810_2414">
<rect width="45" height="45" fill="white" transform="translate(44.5784 0.699219) rotate(80)"/>
</clipPath>
</defs>
</svg>
