<svg width="118" height="134" viewBox="0 0 118 134" fill="none" xmlns="http://www.w3.org/2000/svg">
<path d="M52.8544 2.74356C56.3135 -0.489387 61.686 -0.489388 65.1451 2.74356L83.724 20.1076C84.7278 21.0459 85.9332 21.7418 87.2476 22.142L111.575 29.5497C116.104 30.9289 118.79 35.5817 117.72 40.1938L111.972 64.9656C111.661 66.3041 111.661 67.6959 111.972 69.0344L117.72 93.8062C118.79 98.4183 116.104 103.071 111.575 104.45L87.2476 111.858C85.9332 112.258 84.7278 112.954 83.724 113.892L65.1451 131.256C61.686 134.489 56.3135 134.489 52.8544 131.256L34.2756 113.892C33.2717 112.954 32.0663 112.258 30.7519 111.858L6.42474 104.45C1.89536 103.071 -0.790893 98.4183 0.279363 93.8062L6.02767 69.0344C6.33827 67.6959 6.33827 66.3041 6.02767 64.9656L0.279363 40.1938C-0.790892 35.5817 1.89536 30.9289 6.42473 29.5497L30.7519 22.142C32.0663 21.7418 33.2717 21.0459 34.2756 20.1076L52.8544 2.74356Z" fill="#FBC009"/>
</svg>
